<svg width="421" height="572" viewBox="0 0 421 572" fill="none" xmlns="http://www.w3.org/2000/svg">
<path d="M327.486 173.841C297.628 239.203 229.97 223.916 195.031 208.787C160.092 193.658 171.101 184.415 200.959 119.053C230.818 53.6916 283.347 12.9701 318.287 28.0994C353.226 43.2286 357.345 108.479 327.486 173.841Z" fill="black"/>
<path d="M327.486 173.841C297.628 239.203 229.97 223.916 195.031 208.787C160.092 193.658 171.101 184.415 200.959 119.053C230.818 53.6916 283.347 12.9701 318.287 28.0994C353.226 43.2286 357.345 108.479 327.486 173.841Z" fill="black"/>
<path d="M327.486 173.841C297.628 239.203 229.97 223.916 195.031 208.787C160.092 193.658 171.101 184.415 200.959 119.053C230.818 53.6916 283.347 12.9701 318.287 28.0994C353.226 43.2286 357.345 108.479 327.486 173.841Z" fill="black"/>
<path d="M225.638 176.071C258.887 239.862 251.033 181.136 216.933 197.983C182.833 214.83 177.595 202.036 96.7144 218.34C63.4659 154.548 69.5927 107.916 103.693 91.0696C137.793 74.2227 192.39 112.279 225.638 176.071Z" fill="black"/>
<path d="M225.638 176.071C258.887 239.862 251.033 181.136 216.933 197.983C182.833 214.83 177.595 202.036 96.7144 218.34C63.4659 154.548 69.5927 107.916 103.693 91.0696C137.793 74.2227 192.39 112.279 225.638 176.071Z" fill="black"/>
<path d="M225.638 176.071C258.887 239.862 251.033 181.136 216.933 197.983C182.833 214.83 177.595 202.036 96.7144 218.34C63.4659 154.548 69.5927 107.916 103.693 91.0696C137.793 74.2227 192.39 112.279 225.638 176.071Z" fill="black"/>
<path d="M9.60645 215.088L340.394 215.088C379.606 215.088 411.394 246.875 411.394 286.088V562.442H80.6064C41.3942 562.442 9.60645 530.654 9.60645 491.442V215.088Z" stroke="black" stroke-width="18"/>
<path d="M142.293 289.867V485.307H116.813V289.867H142.293ZM339.043 289.867V313.667H271.563V485.307H246.083V313.667H178.603V289.867H339.043Z" fill="black"/>
</svg>
