<svg width="953" height="574" viewBox="0 0 953 574" fill="none" xmlns="http://www.w3.org/2000/svg">
<path d="M207.107 68.2179H0.230927V207.509H207.107V68.2179Z" fill="white"/>
<path d="M207.093 207.522C207.093 207.522 207.093 206.648 207.093 204.982C207.093 203.315 207.093 200.884 207.093 197.633C207.093 191.185 207.093 181.732 207.025 169.616C207.025 145.424 206.93 110.632 206.862 68.2179L207.161 68.5184L0.312418 68.6004L0.679172 68.2179C0.679172 117.845 0.679172 165.04 0.679172 207.55L0.339586 207.208L149.377 207.372L191.947 207.468H203.276H206.196H207.202H206.237H203.358H192.097L149.594 207.55L0.339586 207.727H0V207.386C0 164.903 0 117.708 0 68.054V67.6852H0.393918L207.242 67.7671H207.541V68.054C207.473 110.55 207.419 145.397 207.392 169.643C207.392 181.719 207.324 191.158 207.31 197.592C207.31 200.774 207.31 203.219 207.31 204.886C207.31 206.552 207.093 207.522 207.093 207.522Z" fill="#E0E0E0"/>
<path d="M0.230927 80.6485C0.230927 80.4436 46.4961 80.2797 103.574 80.2797C160.651 80.2797 206.93 80.4436 206.93 80.6485C206.93 80.8534 160.665 81.031 103.574 81.031C46.4825 81.031 0.230927 80.8671 0.230927 80.6485Z" fill="#E0E0E0"/>
<g opacity="0.3">
<path opacity="0.3" d="M8.38097 74.3786C8.38097 74.8206 8.20638 75.2445 7.8956 75.557C7.58482 75.8695 7.16331 76.0451 6.72379 76.0451C6.28428 76.0451 5.86277 75.8695 5.55199 75.557C5.24121 75.2445 5.06662 74.8206 5.06662 74.3786C5.06662 73.9366 5.24121 73.5127 5.55199 73.2002C5.86277 72.8876 6.28428 72.7121 6.72379 72.7121C7.16331 72.7121 7.58482 72.8876 7.8956 73.2002C8.20638 73.5127 8.38097 73.9366 8.38097 74.3786V74.3786Z" fill="#E0E0E0"/>
</g>
<g opacity="0.3">
<path opacity="0.3" d="M14.0724 74.3786C14.0724 74.7082 13.9753 75.0304 13.7932 75.3044C13.6111 75.5785 13.3523 75.7921 13.0494 75.9182C12.7466 76.0444 12.4134 76.0774 12.092 76.0131C11.7705 75.9488 11.4752 75.7901 11.2435 75.557C11.0117 75.3239 10.8539 75.027 10.7899 74.7037C10.726 74.3804 10.7588 74.0453 10.8842 73.7408C11.0097 73.4363 11.2221 73.176 11.4946 72.9929C11.7671 72.8098 12.0875 72.7121 12.4153 72.7121C12.8548 72.7121 13.2763 72.8876 13.5871 73.2002C13.8979 73.5127 14.0724 73.9366 14.0724 74.3786Z" fill="#E0E0E0"/>
</g>
<g opacity="0.3">
<path opacity="0.3" d="M19.6688 74.3786C19.6688 74.7082 19.5716 75.0304 19.3895 75.3044C19.2074 75.5785 18.9486 75.7921 18.6458 75.9182C18.343 76.0444 18.0098 76.0774 17.6883 76.0131C17.3669 75.9488 17.0716 75.7901 16.8398 75.557C16.6081 75.3239 16.4502 75.027 16.3863 74.7037C16.3223 74.3804 16.3552 74.0453 16.4806 73.7408C16.606 73.4363 16.8184 73.176 17.0909 72.9929C17.3635 72.8098 17.6839 72.7121 18.0116 72.7121C18.4511 72.7121 18.8726 72.8876 19.1834 73.2002C19.4942 73.5127 19.6688 73.9366 19.6688 74.3786Z" fill="#E0E0E0"/>
</g>
<path d="M73.1875 95.1827H18.0116V150.683H73.1875V95.1827Z" fill="#E0E0E0"/>
<path d="M178.731 110.864C178.731 111.069 157.201 111.233 130.659 111.233C104.117 111.233 82.5873 111.069 82.5873 110.864C82.5873 110.659 104.117 110.496 130.659 110.496C157.201 110.496 178.731 110.659 178.731 110.864Z" fill="#E0E0E0"/>
<path d="M178.731 121.178C178.731 121.383 157.201 121.546 130.659 121.546C104.117 121.546 82.5873 121.383 82.5873 121.178C82.5873 120.973 104.117 120.809 130.659 120.809C157.201 120.809 178.731 120.973 178.731 121.178Z" fill="#E0E0E0"/>
<path d="M178.731 131.491C178.731 131.696 157.201 131.86 130.659 131.86C104.117 131.86 82.5873 131.696 82.5873 131.491C82.5873 131.286 104.117 131.122 130.659 131.122C157.201 131.122 178.731 131.286 178.731 131.491Z" fill="#E0E0E0"/>
<path d="M139.407 141.804C138.67 141.917 137.925 141.967 137.179 141.954L131.094 142.064C125.946 142.064 118.869 142.173 111.004 142.173C103.139 142.173 96.062 142.173 90.9139 142.064L84.8285 141.954C84.0786 141.967 83.329 141.916 82.5873 141.804C83.329 141.692 84.0786 141.642 84.8285 141.654L90.9139 141.545C96.0485 141.476 103.139 141.435 111.004 141.435C118.869 141.435 125.946 141.435 131.094 141.545L137.179 141.654C137.925 141.641 138.67 141.691 139.407 141.804V141.804Z" fill="#E0E0E0"/>
<path d="M47.3926 169.384H21.4618V195.461H47.3926V169.384Z" fill="#E0E0E0"/>
<path d="M94.4184 169.384H68.4877V195.461H94.4184V169.384Z" fill="#E0E0E0"/>
<path d="M141.458 169.384H115.527V195.461H141.458V169.384Z" fill="#E0E0E0"/>
<path d="M188.484 169.384H162.553V195.461H188.484V169.384Z" fill="#E0E0E0"/>
<path d="M415.83 0.53273H237.629V73.3267H415.83V0.53273Z" fill="white"/>
<path d="M415.83 73.3268C415.83 73.3268 415.83 72.876 415.83 71.9608C415.83 71.0455 415.83 69.8298 415.83 68.1769C415.83 64.8576 415.83 59.981 415.83 53.6974C415.83 41.1302 415.762 22.9624 415.721 0.423459L415.925 0.62836L237.724 0.710319L237.995 0.423459C237.995 25.913 237.995 50.5283 237.995 73.2175L237.737 72.9443L365.503 73.0672L402.559 73.1492H412.488H402.627L365.625 73.2175L237.683 73.3541H237.411V73.0809C237.411 50.3917 237.411 25.7764 237.411 0.286861V0H237.696L415.898 0.0956194H416.088V0.4781C416.088 23.0307 416.006 41.2395 415.979 53.834C415.979 60.0902 415.979 64.9668 415.979 68.2726C415.979 69.9118 415.979 71.1548 415.979 72.0154C415.979 72.876 415.83 73.3268 415.83 73.3268Z" fill="#E0E0E0"/>
<path d="M237.805 10.3543C237.805 10.1903 277.632 10.0674 326.749 10.0674C375.867 10.0674 415.721 10.1903 415.721 10.3543C415.721 10.5182 375.894 10.6411 326.749 10.6411C277.605 10.6411 237.805 10.5045 237.805 10.3543Z" fill="#E0E0E0"/>
<g opacity="0.3">
<path opacity="0.3" d="M245.262 5.94209C245.262 6.19576 245.188 6.44377 245.049 6.65544C244.91 6.86712 244.712 7.03318 244.48 7.13309C244.248 7.233 243.993 7.26239 243.744 7.2176C243.496 7.17282 243.266 7.05583 243.083 6.88112C242.9 6.7064 242.772 6.48161 242.715 6.23454C242.658 5.98747 242.674 5.72897 242.761 5.49098C242.849 5.253 243.004 5.04597 243.207 4.89551C243.41 4.74505 243.652 4.65774 243.904 4.64439C244.253 4.64395 244.588 4.77846 244.841 5.02004C245.094 5.26162 245.245 5.59177 245.262 5.94209Z" fill="#EBEBEB"/>
</g>
<g opacity="0.3">
<path opacity="0.3" d="M249.691 5.94209C249.691 6.19875 249.615 6.44964 249.473 6.66305C249.331 6.87645 249.13 7.04278 248.894 7.141C248.658 7.23922 248.399 7.26492 248.148 7.21485C247.898 7.16478 247.668 7.04118 247.488 6.8597C247.307 6.67821 247.184 6.44698 247.135 6.19526C247.085 5.94353 247.11 5.6826 247.208 5.44548C247.306 5.20836 247.471 5.00568 247.683 4.86309C247.895 4.72049 248.145 4.64439 248.4 4.64439C248.737 4.66094 249.056 4.80298 249.294 5.04285C249.533 5.28272 249.674 5.60326 249.691 5.94209Z" fill="#EBEBEB"/>
</g>
<g opacity="0.3">
<path opacity="0.3" d="M252.774 7.25345C253.487 7.25345 254.065 6.67245 254.065 5.95576C254.065 5.23906 253.487 4.65806 252.774 4.65806C252.061 4.65806 251.484 5.23906 251.484 5.95576C251.484 6.67245 252.061 7.25345 252.774 7.25345Z" fill="#EBEBEB"/>
</g>
<path d="M295.82 22.1838H252.774V65.4723H295.82V22.1838Z" fill="#E0E0E0"/>
<path d="M403.523 33.7811C403.523 33.945 381.368 34.068 354.052 34.068C326.736 34.068 304.581 33.945 304.581 33.7811C304.581 33.6172 326.736 33.4942 354.052 33.4942C381.368 33.4942 403.523 33.6309 403.523 33.7811Z" fill="#E0E0E0"/>
<path d="M403.523 42.6055C403.523 42.7557 381.368 42.8787 354.052 42.8787C326.736 42.8787 304.581 42.7557 304.581 42.6055C304.581 42.4552 326.736 42.3186 354.052 42.3186C381.368 42.3186 403.523 42.4416 403.523 42.6055Z" fill="#E0E0E0"/>
<path d="M368.206 51.4161C367.99 51.4489 367.77 51.4489 367.554 51.4161H365.707L358.915 51.5118L336.407 51.5937L313.872 51.621L307.081 51.5254H305.22C305.004 51.5568 304.784 51.5568 304.568 51.5254C304.784 51.5027 305.003 51.5027 305.22 51.5254H307.081L313.872 51.4435L336.394 51.3478L358.901 51.4435L365.693 51.5254H367.541C367.758 51.4639 367.981 51.4272 368.206 51.4161V51.4161Z" fill="#E0E0E0"/>
<path d="M896.602 97.6825C896.889 97.2562 897.226 96.8663 897.607 96.5214C898.408 95.7291 899.386 94.732 900.541 93.5709C903.027 91.0847 906.504 87.6971 910.375 84.0089L910.47 83.9269V84.4187C906.572 80.7851 903.067 77.4657 900.568 75.0343L897.62 72.1384C897.24 71.7999 896.898 71.4196 896.602 71.0046C897.036 71.2641 897.438 71.576 897.797 71.9334L900.894 74.6654C903.475 77.0013 907.034 80.266 910.932 83.8996L911.204 84.1591L910.932 84.405L910.851 84.487C906.979 88.2025 903.448 91.5355 900.867 93.9124L897.797 96.7263C897.429 97.0815 897.029 97.4017 896.602 97.6825V97.6825Z" fill="#E0E0E0"/>
<path d="M866.542 70.9909C866.247 71.4074 865.91 71.792 865.536 72.1384L862.643 75.1026C860.157 77.575 856.68 80.9627 852.809 84.6645L852.714 84.7465V84.2411C856.612 87.8883 860.117 91.2077 862.616 93.6392L865.564 96.5351C865.948 96.8692 866.291 97.25 866.582 97.6689C866.15 97.4006 865.749 97.0844 865.387 96.7263L862.29 93.9943C859.709 91.6585 856.15 88.3937 852.252 84.7465L851.98 84.5006L852.252 84.2548L852.333 84.1591C856.205 80.4573 859.736 77.1242 862.317 74.7338L865.36 71.9471C865.714 71.5819 866.111 71.2609 866.542 70.9909V70.9909Z" fill="#E0E0E0"/>
<path d="M874.271 103.966C874.094 103.898 877.245 94.9778 881.32 84.0362C885.395 73.0945 888.832 64.2702 889.009 64.3385C889.185 64.4068 886.02 73.3267 881.959 84.2684C877.897 95.21 874.447 104.034 874.271 103.966Z" fill="#E0E0E0"/>
<path d="M930.818 123.063C930.818 123.063 930.818 122.544 930.818 121.574C930.818 120.604 930.818 119.142 930.818 117.285C930.818 113.514 930.818 108.009 930.818 101.016C930.818 87.014 930.737 67.0022 930.669 42.8787L930.954 43.1655H833.153L833.493 42.824C833.493 71.8105 833.493 99.1851 833.493 123.008L833.194 122.708L903.828 122.858L923.85 122.94H929.175H931.022H930.574H929.215H923.959L903.991 123.022L833.126 123.172H832.827V122.858C832.827 99.0348 832.827 71.6602 832.827 42.6738V42.3323H833.18H930.981H931.266V42.824C931.266 67.0158 931.158 87.096 931.117 101.138C931.117 108.119 931.117 113.583 931.117 117.339C931.117 119.183 931.117 120.604 931.117 121.587C931.117 122.571 930.818 123.063 930.818 123.063Z" fill="#E0E0E0"/>
<path d="M931.593 54.7765C931.593 54.9678 909.492 55.118 882.244 55.118C854.996 55.118 832.909 54.9678 832.909 54.7765C832.909 54.5853 854.996 54.435 882.244 54.435C909.492 54.435 931.593 54.5853 931.593 54.7765Z" fill="#E0E0E0"/>
<path d="M840.91 48.9164C840.91 49.1866 840.83 49.4507 840.681 49.6753C840.531 49.8999 840.319 50.075 840.071 50.1784C839.823 50.2818 839.55 50.3088 839.286 50.2561C839.023 50.2034 838.781 50.0733 838.591 49.8823C838.401 49.6913 838.271 49.4479 838.219 49.1829C838.167 48.9179 838.193 48.6432 838.296 48.3936C838.399 48.144 838.573 47.9307 838.797 47.7806C839.02 47.6305 839.283 47.5504 839.551 47.5504C839.912 47.5504 840.257 47.6943 840.512 47.9505C840.766 48.2067 840.91 48.5541 840.91 48.9164Z" fill="#E0E0E0"/>
<path d="M845.745 48.9164C845.745 49.1866 845.666 49.4507 845.516 49.6753C845.367 49.8999 845.155 50.075 844.907 50.1784C844.658 50.2818 844.385 50.3088 844.122 50.2561C843.858 50.2034 843.616 50.0733 843.426 49.8823C843.236 49.6913 843.107 49.4479 843.055 49.1829C843.002 48.9179 843.029 48.6432 843.132 48.3936C843.235 48.144 843.409 47.9307 843.632 47.7806C843.856 47.6305 844.118 47.5504 844.387 47.5504C844.747 47.5504 845.093 47.6943 845.347 47.9505C845.602 48.2067 845.745 48.5541 845.745 48.9164Z" fill="#E0E0E0"/>
<path d="M850.54 48.9164C850.54 49.1866 850.46 49.4507 850.311 49.6753C850.162 49.8999 849.95 50.075 849.702 50.1784C849.453 50.2818 849.18 50.3088 848.917 50.2561C848.653 50.2034 848.411 50.0733 848.221 49.8823C848.031 49.6913 847.902 49.4479 847.85 49.1829C847.797 48.9179 847.824 48.6432 847.927 48.3936C848.03 48.144 848.204 47.9307 848.427 47.7806C848.651 47.6305 848.913 47.5504 849.182 47.5504C849.542 47.5504 849.888 47.6943 850.142 47.9505C850.397 48.2067 850.54 48.5541 850.54 48.9164Z" fill="#E0E0E0"/>
<path d="M908.27 475.709C913.92 472.772 920.59 472.389 926.865 473.441C930.234 474.001 933.752 475.012 936.048 477.539C938.343 480.066 938.764 484.56 936.143 486.76C934.441 487.907 932.397 488.428 930.356 488.235C925.439 488.235 919.979 487.306 916.053 490.284C913.812 491.978 912.331 494.792 909.642 495.625C908.301 495.938 906.896 495.803 905.639 495.241C904.381 494.679 903.34 493.721 902.673 492.51C901.401 490.032 901.119 487.159 901.886 484.478C902.21 482.622 902.955 480.866 904.062 479.345C905.169 477.825 906.608 476.581 908.27 475.709V475.709Z" fill="#EBEBEB"/>
<path d="M895.311 450.561C898.775 455.519 905.499 453.88 908.609 450.848C911.72 447.815 913.038 443.417 914.246 439.237C916.963 429.675 919.68 419.621 917.71 409.868C917.215 406.91 915.923 404.146 913.975 401.877C912.994 400.752 911.735 399.907 910.325 399.427C908.916 398.947 907.406 398.85 905.947 399.145C902.551 400.046 900.514 403.379 898.924 406.548C894.441 415.927 892.093 426.194 892.051 436.6C892.051 441.436 892.594 446.504 895.311 450.506" fill="#EBEBEB"/>
<path d="M885.816 457.677C889.565 453.197 890.285 446.667 888.614 441.053C886.719 435.475 883.33 430.531 878.821 426.765C873.702 422.184 867.746 418.649 861.285 416.356C858.782 415.337 856.09 414.871 853.393 414.99C852.039 415.077 850.727 415.497 849.572 416.211C848.417 416.925 847.453 417.913 846.764 419.088C844.93 422.626 846.764 426.929 848.611 430.426C851.985 436.603 855.837 442.504 860.13 448.074C863.58 452.541 867.533 456.967 872.803 459.002C878.074 461.038 883.534 460.792 886.319 457.117" fill="#EBEBEB"/>
<path d="M895.08 525.486C895.26 524.742 895.365 523.983 895.393 523.218C895.556 521.579 895.746 519.516 895.99 517.057C896.235 514.599 896.656 511.389 897.349 508.028C898.157 504.39 899.252 500.823 900.622 497.36C901.972 493.903 903.801 490.656 906.056 487.716C907.875 485.33 910.193 483.376 912.847 481.992C914.665 481.089 916.614 480.481 918.62 480.189C919.372 480.161 920.119 480.051 920.848 479.861C920.094 479.787 919.334 479.787 918.58 479.861C916.496 480.016 914.457 480.548 912.562 481.432C909.749 482.77 907.281 484.743 905.349 487.197C903.002 490.183 901.107 493.502 899.726 497.046C898.339 500.556 897.258 504.18 896.493 507.878C895.912 510.902 895.513 513.958 895.297 517.03C895.107 519.653 895.026 521.77 894.985 523.232C894.935 523.984 894.967 524.74 895.08 525.486V525.486Z" fill="#E0E0E0"/>
<path d="M895.501 520.746C895.541 520.396 895.541 520.043 895.501 519.694V516.702C895.501 514.093 895.501 510.337 895.637 505.692C895.855 496.404 896.656 486.404 898.191 472.321C899.644 459.071 901.6 443.635 903.624 433.609C904.059 431.327 904.507 429.278 904.983 427.489C905.458 425.7 905.716 424.129 906.042 422.872C906.368 421.615 906.558 420.727 906.749 419.962C906.848 419.625 906.908 419.276 906.925 418.924C906.775 419.241 906.652 419.57 906.558 419.908C906.341 420.654 906.056 421.611 905.703 422.776C905.322 424.033 904.928 425.508 904.48 427.366C904.032 429.224 903.516 431.205 903.027 433.472C900.476 445.331 898.558 457.319 897.281 469.384C895.746 483.509 895.053 496.376 894.985 505.679C894.985 510.337 894.985 514.107 895.148 516.702C895.23 517.918 895.284 518.915 895.338 519.694C895.357 520.049 895.412 520.401 895.501 520.746V520.746Z" fill="#E0E0E0"/>
<path d="M895.569 495.939C895.637 494.897 895.637 493.853 895.569 492.811C895.461 490.803 895.175 487.893 894.618 484.342C893.94 480.196 893.033 476.092 891.902 472.048C890.565 467.051 888.848 462.164 886.767 457.432C883.199 448.708 878.091 440.707 871.689 433.813C870.579 432.636 869.395 431.532 868.144 430.508C867.601 430.043 867.112 429.579 866.623 429.21L865.265 428.254C864.437 427.624 863.56 427.062 862.643 426.574C865.659 428.962 868.526 431.535 871.228 434.278C877.424 441.219 882.395 449.174 885.925 457.8C887.97 462.505 889.699 467.343 891.1 472.28C892.234 476.287 893.163 480.349 893.885 484.451C894.537 487.975 894.904 490.844 895.134 492.838C895.192 493.882 895.338 494.92 895.569 495.939V495.939Z" fill="#E0E0E0"/>
<path d="M871.73 539.692L874.203 573.733H917.697L920.169 539.692H871.73Z" fill="#E0E0E0"/>
<path d="M925.344 526.264H867.52V539.678H925.344V526.264Z" fill="#E0E0E0"/>
<path d="M867.52 572.435V576.15H870.236H924.393V572.435H867.52Z" fill="#EBEBEB"/>
<path d="M919.354 550.811C919.354 550.811 919.354 550.934 919.15 551.125L918.498 552L915.972 555.251L915.863 555.401L915.741 555.251C914.152 553.038 912.033 550.074 909.52 546.59H909.886L903.747 555.319L903.556 555.592L903.339 555.333L896.072 546.645H896.493L896.099 547.15L889.593 555.346L889.375 555.62L889.185 555.333C886.971 552.191 884.906 549.268 883.045 546.604H883.399L875.86 555.251L875.724 555.401L875.615 555.237L873.252 551.235L872.641 550.169C872.569 550.053 872.509 549.929 872.464 549.8C872.464 549.8 872.559 549.896 872.708 550.128L873.388 551.153L875.873 555.073H875.629L883.059 546.317L883.249 546.099L883.412 546.331L889.606 555.018H889.185L895.678 546.823L896.072 546.317L896.276 546.058L896.493 546.317L903.733 555.032H903.393L909.587 546.344L909.778 546.099L909.954 546.344L916.04 555.1H915.822L918.457 551.918L919.164 551.098C919.217 550.996 919.28 550.9 919.354 550.811Z" fill="#F5F5F5"/>
<path d="M920.766 539.46C920.766 539.61 909.9 539.733 896.425 539.733C882.95 539.733 872.083 539.61 872.083 539.46C872.083 539.309 882.95 539.187 896.425 539.187C909.9 539.187 920.766 539.309 920.766 539.46Z" fill="#F5F5F5"/>
<path d="M115.744 101.685H809.668C812.096 101.685 814.424 102.655 816.141 104.381C817.858 106.108 818.823 108.45 818.823 110.892V556.439C818.823 561.718 816.738 566.78 813.026 570.512C809.315 574.245 804.281 576.342 799.032 576.342H125.063C122.459 576.349 119.88 575.839 117.472 574.842C115.065 573.845 112.877 572.381 111.033 570.532C109.19 568.683 107.727 566.486 106.729 564.068C105.731 561.65 105.217 559.057 105.217 556.439V112.285C105.215 110.894 105.486 109.516 106.015 108.23C106.543 106.944 107.318 105.775 108.296 104.79C109.274 103.806 110.435 103.025 111.713 102.492C112.991 101.959 114.361 101.685 115.744 101.685V101.685Z" fill="#455A64"/>
<path d="M75.3745 541.181H848.557V563.952C848.557 568.923 846.594 573.69 843.099 577.204C839.604 580.719 834.863 582.694 829.921 582.694H94.0109C89.0682 582.694 84.328 580.719 80.8329 577.204C77.3379 573.69 75.3745 568.923 75.3745 563.952V541.181Z" fill="#455A64"/>
<path d="M797.701 120.549H124.37V521.333H797.701V120.549Z" fill="#E0E0E0"/>
<path d="M391.692 541.181L401.282 556.521H536.287L545.198 541.181H391.692Z" fill="#263238"/>
<path d="M779.349 143.771H144.351V521.333H779.349V143.771Z" fill="#263238"/>
<path d="M193.075 510.241C192.749 510.241 192.477 429.838 192.477 330.667C192.477 231.496 192.749 151.052 193.075 151.052C193.401 151.052 193.673 231.455 193.673 330.667C193.673 429.879 193.401 510.241 193.075 510.241Z" fill="#E0E0E0"/>
<path d="M180.266 183.617C180.266 183.945 175.647 184.218 169.956 184.218C164.264 184.218 159.633 183.945 159.633 183.617C159.633 183.29 164.251 183.016 169.956 183.016C175.661 183.016 180.266 183.29 180.266 183.617Z" fill="#E0E0E0"/>
<path d="M181.054 163.237C181.054 163.565 176.435 163.838 170.744 163.838C165.052 163.838 160.434 163.565 160.434 163.237C160.434 162.909 165.052 162.636 170.744 162.636C176.435 162.636 181.054 162.909 181.054 163.237Z" fill="#E0E0E0"/>
<path d="M180.266 205.583C180.266 205.91 175.647 206.184 169.956 206.184C164.264 206.184 159.633 205.91 159.633 205.583C159.633 205.255 164.251 204.982 169.956 204.982C175.661 204.982 180.266 205.255 180.266 205.583Z" fill="#E0E0E0"/>
<path d="M180.266 227.548C180.266 227.889 175.647 228.149 169.956 228.149C164.264 228.149 159.633 227.889 159.633 227.548C159.633 227.206 164.251 226.961 169.956 226.961C175.661 226.961 180.266 227.234 180.266 227.548Z" fill="#E0E0E0"/>
<path d="M180.266 249.527C180.266 249.855 175.647 250.128 169.956 250.128C164.264 250.128 159.633 249.855 159.633 249.527C159.633 249.199 164.251 248.926 169.956 248.926C175.661 248.926 180.266 249.185 180.266 249.527Z" fill="#E0E0E0"/>
<path d="M180.266 271.492C180.266 271.82 175.647 272.093 169.956 272.093C164.264 272.093 159.633 271.82 159.633 271.492C159.633 271.164 164.251 270.891 169.956 270.891C175.661 270.891 180.266 271.164 180.266 271.492Z" fill="#E0E0E0"/>
<path d="M180.266 293.457C180.266 293.785 175.647 294.058 169.956 294.058C164.264 294.058 159.633 293.785 159.633 293.457C159.633 293.129 164.251 292.856 169.956 292.856C175.661 292.856 180.266 293.129 180.266 293.457Z" fill="#E0E0E0"/>
<path d="M180.266 315.423C180.266 315.764 175.647 316.024 169.956 316.024C164.264 316.024 159.633 315.764 159.633 315.423C159.633 315.081 164.251 314.835 169.956 314.835C175.661 314.835 180.266 315.095 180.266 315.423Z" fill="#E0E0E0"/>
<path d="M180.266 337.401C180.266 337.729 175.647 337.989 169.956 337.989C164.264 337.989 159.633 337.729 159.633 337.401C159.633 337.074 164.251 336.8 169.956 336.8C175.661 336.8 180.266 337.06 180.266 337.401Z" fill="#E0E0E0"/>
<path d="M180.266 359.367C180.266 359.695 175.647 359.968 169.956 359.968C164.264 359.968 159.633 359.695 159.633 359.367C159.633 359.039 164.251 358.766 169.956 358.766C175.661 358.766 180.266 359.039 180.266 359.367Z" fill="#E0E0E0"/>
<path d="M180.266 381.332C180.266 381.66 175.647 381.933 169.956 381.933C164.264 381.933 159.633 381.66 159.633 381.332C159.633 381.004 164.251 380.731 169.956 380.731C175.661 380.731 180.266 381.004 180.266 381.332Z" fill="#E0E0E0"/>
<path d="M180.266 403.297C180.266 403.639 175.647 403.898 169.956 403.898C164.264 403.898 159.633 403.639 159.633 403.297C159.633 402.956 164.251 402.71 169.956 402.71C175.661 402.71 180.266 402.969 180.266 403.297Z" fill="#E0E0E0"/>
<path d="M180.266 425.303C180.266 425.631 175.647 425.891 169.956 425.891C164.264 425.891 159.633 425.631 159.633 425.303C159.633 424.976 164.251 424.702 169.956 424.702C175.661 424.702 180.266 424.935 180.266 425.303Z" fill="#E0E0E0"/>
<path d="M180.266 447.241C180.266 447.569 175.647 447.842 169.956 447.842C164.264 447.842 159.633 447.569 159.633 447.241C159.633 446.913 164.251 446.64 169.956 446.64C175.661 446.64 180.266 446.913 180.266 447.241Z" fill="#E0E0E0"/>
<path d="M180.266 469.207C180.266 469.534 175.647 469.808 169.956 469.808C164.264 469.808 159.633 469.534 159.633 469.207C159.633 468.879 164.251 468.605 169.956 468.605C175.661 468.605 180.266 468.879 180.266 469.207Z" fill="#E0E0E0"/>
<path d="M180.266 491.172C180.266 491.513 175.647 491.773 169.956 491.773C164.264 491.773 159.633 491.513 159.633 491.172C159.633 490.83 164.251 490.571 169.956 490.571C175.661 490.571 180.266 490.871 180.266 491.172Z" fill="#E0E0E0"/>
<path d="M262.948 182.32C262.948 182.648 250.967 182.921 236.189 182.921C221.41 182.921 209.416 182.648 209.416 182.32C209.416 181.992 221.396 181.719 236.189 181.719C250.981 181.719 262.948 181.992 262.948 182.32Z" fill="#252525"/>
<path d="M262.948 491.172C262.948 491.513 250.967 491.773 236.189 491.773C221.41 491.773 209.416 491.513 209.416 491.172C209.416 490.83 221.396 490.571 236.189 490.571C250.981 490.571 262.948 490.871 262.948 491.172Z" fill="#252525"/>
<path d="M337.508 227.548C337.508 227.889 315.081 228.149 287.425 228.149C259.77 228.149 237.343 227.889 237.343 227.548C237.343 227.206 259.756 226.961 287.425 226.961C315.095 226.961 337.508 227.234 337.508 227.548Z" fill="#252525"/>
<path d="M453.347 227.548C453.347 227.889 430.921 228.149 403.265 228.149C375.609 228.149 353.169 227.889 353.169 227.548C353.169 227.206 375.595 226.961 403.265 226.961C430.934 226.961 453.347 227.234 453.347 227.548Z" fill="#E0E0E0"/>
<path d="M409.079 249.527C409.079 249.855 376.03 250.128 335.266 250.128C294.502 250.128 261.454 249.855 261.454 249.527C261.454 249.199 294.489 248.926 335.266 248.926C376.044 248.926 409.079 249.185 409.079 249.527Z" fill="#E0E0E0"/>
<path d="M409.079 271.492C409.079 271.82 376.03 272.093 335.266 272.093C294.502 272.093 261.454 271.82 261.454 271.492C261.454 271.164 294.489 270.891 335.266 270.891C376.044 270.891 409.079 271.164 409.079 271.492Z" fill="#E0E0E0"/>
<path d="M510.696 337.401C510.696 337.729 477.634 337.989 436.884 337.989C396.134 337.989 363.058 337.729 363.058 337.401C363.058 337.074 396.106 336.8 436.884 336.8C477.661 336.8 510.696 337.06 510.696 337.401Z" fill="#E0E0E0"/>
<path d="M466.835 293.457C466.835 293.785 433.787 294.058 393.037 294.058C352.286 294.058 319.211 293.785 319.211 293.457C319.211 293.129 352.259 292.856 393.037 292.856C433.814 292.856 466.835 293.129 466.835 293.457Z" fill="#E0E0E0"/>
<path d="M647.237 293.457C647.237 293.785 614.188 294.058 573.438 294.058C532.688 294.058 499.612 293.785 499.612 293.457C499.612 293.129 532.661 292.856 573.438 292.856C614.216 292.856 647.237 293.129 647.237 293.457Z" fill="#E0E0E0"/>
<path d="M584.509 249.527C584.509 249.855 551.447 250.128 510.696 250.128C469.946 250.128 436.884 249.855 436.884 249.527C436.884 249.199 469.919 248.926 510.696 248.926C551.474 248.926 584.509 249.185 584.509 249.527Z" fill="#FAFAFA"/>
<path d="M686.48 337.401C686.48 337.729 653.431 337.989 612.667 337.989C571.903 337.989 538.855 337.729 538.855 337.401C538.855 337.074 571.89 336.8 612.667 336.8C653.445 336.8 686.48 337.06 686.48 337.401Z" fill="#FAFAFA"/>
<path d="M666.118 271.492C666.118 271.82 614.8 272.093 551.501 272.093C488.202 272.093 436.884 271.82 436.884 271.492C436.884 271.164 488.189 270.891 551.501 270.891C614.813 270.891 666.118 271.164 666.118 271.492Z" fill="#455A64"/>
<path d="M262.948 205.583C262.948 205.91 250.967 206.184 236.189 206.184C221.41 206.184 209.416 205.91 209.416 205.583C209.416 205.255 221.396 204.982 236.189 204.982C250.981 204.982 262.948 205.255 262.948 205.583Z" fill="#FAFAFA"/>
<path d="M262.948 469.207C262.948 469.534 250.967 469.808 236.189 469.808C221.41 469.808 209.416 469.534 209.416 469.207C209.416 468.879 221.396 468.605 236.189 468.605C250.981 468.605 262.948 468.879 262.948 469.207Z" fill="#FAFAFA"/>
<path d="M289.422 293.457C289.422 293.785 277.442 294.058 262.649 294.058C247.857 294.058 235.876 293.785 235.876 293.457C235.876 293.129 247.87 292.856 262.649 292.856C277.428 292.856 289.422 293.129 289.422 293.457Z" fill="#FAFAFA"/>
<path d="M718.564 293.457C718.564 293.785 706.583 294.058 691.804 294.058C677.025 294.058 665.031 293.785 665.031 293.457C665.031 293.129 677.012 292.856 691.804 292.856C706.597 292.856 718.564 293.129 718.564 293.457Z" fill="#252525"/>
<path d="M337.508 381.209C337.508 381.537 315.081 381.81 287.425 381.81C259.77 381.81 237.343 381.537 237.343 381.209C237.343 380.881 259.756 380.608 287.425 380.608C315.095 380.608 337.508 380.867 337.508 381.209Z" fill="#252525"/>
<path d="M453.347 381.209C453.347 381.537 430.921 381.81 403.265 381.81C375.609 381.81 353.169 381.537 353.169 381.209C353.169 380.881 375.595 380.608 403.265 380.608C430.934 380.608 453.347 380.867 453.347 381.209Z" fill="#E0E0E0"/>
<path d="M409.079 403.174C409.079 403.502 376.03 403.775 335.266 403.775C294.502 403.775 261.454 403.502 261.454 403.174C261.454 402.846 294.489 402.573 335.266 402.573C376.044 402.573 409.079 402.846 409.079 403.174Z" fill="#E0E0E0"/>
<path d="M409.079 425.139C409.079 425.467 376.03 425.74 335.266 425.74C294.502 425.74 261.454 425.467 261.454 425.139C261.454 424.812 294.489 424.538 335.266 424.538C376.044 424.538 409.079 424.812 409.079 425.139Z" fill="#E0E0E0"/>
<path d="M466.835 447.159C466.835 447.501 433.787 447.76 393.037 447.76C352.286 447.76 319.211 447.501 319.211 447.159C319.211 446.818 352.259 446.572 393.037 446.572C433.814 446.572 466.835 446.777 466.835 447.159Z" fill="#E0E0E0"/>
<path d="M647.237 447.159C647.237 447.501 614.188 447.76 573.438 447.76C532.688 447.76 499.612 447.501 499.612 447.159C499.612 446.818 532.661 446.572 573.438 446.572C614.216 446.572 647.237 446.777 647.237 447.159Z" fill="#E0E0E0"/>
<path d="M584.509 403.174C584.509 403.502 551.447 403.775 510.696 403.775C469.946 403.775 436.884 403.502 436.884 403.174C436.884 402.846 469.919 402.573 510.696 402.573C551.474 402.573 584.509 402.846 584.509 403.174Z" fill="#FAFAFA"/>
<path d="M666.118 425.139C666.118 425.467 614.8 425.74 551.501 425.74C488.202 425.74 436.884 425.467 436.884 425.139C436.884 424.812 488.189 424.538 551.501 424.538C614.813 424.538 666.118 424.812 666.118 425.139Z" fill="#455A64"/>
<path d="M289.422 447.159C289.422 447.501 277.442 447.76 262.649 447.76C247.857 447.76 235.876 447.501 235.876 447.159C235.876 446.818 247.87 446.572 262.649 446.572C277.428 446.572 289.422 446.777 289.422 447.159Z" fill="#FAFAFA"/>
<path d="M718.564 447.159C718.564 447.501 706.583 447.76 691.804 447.76C677.025 447.76 665.031 447.501 665.031 447.159C665.031 446.818 677.012 446.572 691.804 446.572C706.597 446.572 718.564 446.777 718.564 447.159Z" fill="#252525"/>
<path d="M732.84 555.073C732.84 555.264 596.136 555.428 427.539 555.428C258.941 555.428 122.21 555.237 122.21 555.073C122.21 554.909 258.887 554.718 427.539 554.718C596.19 554.718 732.84 554.855 732.84 555.073Z" fill="#263238"/>
<path d="M99.3492 434.633C89.8419 425.069 78.0238 418.158 65.0563 414.577C52.0888 410.997 38.418 410.871 25.3874 414.211C47.4649 429.339 73.5175 437.522 100.232 437.72" fill="#252525"/>
<path d="M74.2606 345.297C77.3441 323.373 68.8272 298.716 52.5271 282.789C51.9974 304.508 61.1119 328.946 74.2606 345.297Z" fill="#252525"/>
<path d="M87.3143 386.7C75.5273 364.185 56.7622 346.149 33.8635 335.325C37.4428 347.944 44.3002 359.377 53.7302 368.447C63.1603 377.518 74.8227 383.898 87.518 386.933" fill="#252525"/>
<path d="M90.0174 394.678C76.855 395.06 63.5297 394.596 50.802 391.208C38.0743 387.82 25.9036 381.305 17.4004 371.169C43.1871 371.249 68.3769 378.98 89.8136 393.394" fill="#252525"/>
<path d="M83.3343 368.369C90.0174 343.18 100.993 325.763 120.73 311.652C122.238 324.036 119.3 336.555 112.444 346.953C105.588 357.351 95.2648 364.946 83.3343 368.369" fill="#252525"/>
<path d="M133.023 411.807C133.072 404.46 130.961 397.261 126.954 391.117C122.947 384.973 117.222 380.157 110.501 377.275C111.601 390.279 121.762 405.319 133.023 411.807Z" fill="#252525"/>
<path d="M139.312 390.566C140.229 380.022 144.123 369.961 150.533 361.566C156.944 353.171 165.605 346.792 175.498 343.18C170.948 364.23 158.858 381.755 139.312 390.566Z" fill="#252525"/>
<path d="M129.83 428.254C134.476 421.574 142.056 417.422 149.893 415.359C157.731 413.296 165.922 413.105 174.017 412.941C168.502 418.96 161.756 423.708 154.244 426.858C146.731 430.008 138.63 431.486 130.496 431.191" fill="#252525"/>
<path d="M120.431 481.924C135.204 477.34 151.149 478.491 165.12 485.149C179.091 491.807 190.074 503.489 195.9 517.891C168.53 512.727 141.431 500.433 120.431 481.924Z" fill="#252525"/>
<path d="M90.3434 463.278C94.8938 476.815 94.0109 493.18 83.8913 504.845C81.8745 497.864 81.407 490.523 82.5219 483.34C83.6368 476.158 86.3069 469.309 90.3434 463.278" fill="#252525"/>
<path d="M72.5491 455.751C71.8153 464.478 68.8557 472.867 63.9564 480.108C59.0572 487.349 52.3837 493.197 44.5808 497.087C44.2179 497.32 43.8116 497.476 43.3866 497.547C42.9616 497.617 42.5268 497.6 42.1086 497.496C40.8725 496.991 40.7503 495.297 40.9133 493.958C42.8965 476.624 55.6785 459.808 72.5491 455.71" fill="#252525"/>
<path d="M60.9353 453.989C57.0709 458.188 52.39 461.544 47.1829 463.848C41.9758 466.153 36.3535 467.357 30.6644 467.387C24.9754 467.416 19.3411 466.27 14.1106 464.02C8.8802 461.769 4.16523 458.462 0.258064 454.304C19.5465 452.186 41.7962 450.766 60.9353 453.989Z" fill="#252525"/>
<path d="M58.042 298.935C58.042 298.935 58.042 299.14 58.2186 299.509L58.8163 301.148C59.3596 302.623 60.1746 304.727 61.139 307.431C62.1035 310.136 63.3803 313.496 64.7658 317.39L66.9935 323.619L69.3706 330.626C72.7936 340.448 76.5834 352.236 80.6856 365.363C84.7878 378.491 88.9307 393.025 93.0873 408.351C97.2438 423.678 100.816 438.403 103.954 451.763C107.092 465.122 109.55 477.293 111.411 487.538C111.891 490.097 112.344 492.529 112.77 494.833C113.195 497.137 113.562 499.309 113.87 501.348C114.563 505.446 115.16 508.93 115.568 511.812C115.975 514.694 116.342 516.88 116.573 518.437C116.7 519.157 116.795 519.73 116.858 520.158C116.883 520.357 116.924 520.553 116.981 520.746C116.999 520.546 116.999 520.345 116.981 520.145C116.981 519.721 116.858 519.147 116.763 518.423C116.559 516.866 116.274 514.626 115.894 511.771C115.514 508.916 114.984 505.365 114.318 501.28C113.992 499.245 113.639 497.059 113.272 494.751C112.905 492.442 112.416 489.997 111.914 487.443C110.107 477.184 107.581 465.054 104.606 451.613C101.631 438.171 97.8958 423.5 93.8208 408.146C89.7457 392.793 85.4262 378.313 81.3648 365.199C77.3033 352.086 73.3777 340.297 69.9003 330.503C68.9948 328.044 68.1753 325.709 67.4417 323.496L65.1461 317.28C63.7878 313.401 62.4295 310.068 61.4107 307.363C60.3919 304.658 59.5226 302.596 58.9521 301.134C58.6669 300.451 58.4495 299.918 58.3001 299.522C58.2295 299.32 58.1432 299.124 58.042 298.935V298.935Z" fill="#263238"/>
<path d="M163.993 354.422C163.993 354.422 163.871 354.517 163.653 354.736L162.729 355.706C161.928 356.566 160.76 357.864 159.306 359.572C155.17 364.359 151.375 369.435 147.951 374.761C142.838 382.688 138.842 391.289 136.079 400.319C132.887 410.482 130.917 422.039 128.947 434.128C125.035 458.306 120.213 479.971 116.722 495.598C114.97 503.397 113.544 509.722 112.539 514.148C112.063 516.292 111.697 517.986 111.438 519.188C111.316 519.735 111.235 520.172 111.167 520.554C111.143 520.704 111.143 520.856 111.167 521.005C111.167 521.005 111.167 520.855 111.303 520.568C111.438 520.281 111.506 519.803 111.642 519.27L112.892 514.257C113.938 509.831 115.446 503.534 117.293 495.748C120.906 480.107 125.81 458.456 129.735 434.278C131.705 422.189 133.647 410.66 136.772 400.538C139.493 391.557 143.419 382.991 148.44 375.076C151.824 369.734 155.545 364.614 159.578 359.749C160.936 358.028 162.132 356.703 162.893 355.815L163.762 354.791L163.993 354.422Z" fill="#263238"/>
<path d="M55.1759 453.17C55.3994 453.245 55.6329 453.287 55.8687 453.293L57.8654 453.525L59.3053 453.661L61.0168 453.921C62.2393 454.099 63.6384 454.29 65.0918 454.618L67.4961 455.109L70.0633 455.751C71.8428 456.161 73.6901 456.817 75.6597 457.418C79.8738 458.907 83.962 460.734 87.8848 462.882C91.7693 465.074 95.4355 467.635 98.8331 470.532C100.307 471.817 101.709 473.186 103.03 474.629C104.212 475.849 105.323 477.135 106.358 478.482C107.237 479.576 108.057 480.716 108.817 481.897C109.44 482.768 110.002 483.68 110.501 484.629L111.52 486.363C111.764 486.76 111.9 486.964 111.927 486.951C111.873 486.723 111.781 486.506 111.656 486.309L110.746 484.492C110.285 483.543 109.754 482.629 109.156 481.76C108.428 480.548 107.63 479.381 106.766 478.263C105.755 476.874 104.657 475.551 103.479 474.302C102.153 472.862 100.751 471.494 99.2813 470.204C95.893 467.163 92.2065 464.477 88.2787 462.185C84.3215 460.012 80.186 458.184 75.9178 456.721C73.9346 456.148 72.0737 455.506 70.2671 455.123L67.6727 454.508L65.2956 454.112C63.7606 453.798 62.3479 453.648 61.1119 453.511L59.4004 453.306L57.9469 453.238L55.9366 453.156C55.6837 453.123 55.4274 453.127 55.1759 453.17V453.17Z" fill="#263238"/>
<path d="M49.6746 354.886C50.0791 355.388 50.5343 355.845 51.0329 356.252L55.04 359.735C58.4087 362.631 63.1086 366.565 68.3111 370.95C73.5135 375.335 78.2813 379.146 81.7315 381.988L85.8065 385.28C86.2982 385.699 86.8254 386.073 87.3822 386.4C86.9745 385.901 86.5195 385.444 86.0239 385.034L82.0575 381.591C78.6888 378.695 74.0025 374.761 68.7865 370.39C63.5704 366.019 58.8298 362.194 55.3796 359.353L51.3046 356.061C50.8043 355.612 50.2579 355.218 49.6746 354.886V354.886Z" fill="#263238"/>
<path d="M44.9204 380.54C44.9204 380.744 54.9993 383.914 67.5368 387.643C80.0743 391.372 90.3162 394.241 90.3706 394.049C90.4249 393.858 80.3052 390.662 67.7541 386.932C55.2031 383.203 45.0019 380.348 44.9204 380.54Z" fill="#263238"/>
<path d="M82.3292 370.322C82.7321 369.876 83.083 369.386 83.3751 368.86L86.0918 364.762C88.3466 361.32 91.5252 356.566 95.3693 351.608C99.2134 346.649 102.84 342.251 105.53 339.136L108.735 335.462C109.16 335.05 109.538 334.592 109.863 334.096C109.367 334.444 108.911 334.848 108.504 335.298C107.676 336.117 106.521 337.319 105.122 338.836C102.31 341.855 98.575 346.185 94.758 351.198C90.9411 356.211 87.7761 360.992 85.6164 364.516C84.5433 366.279 83.7011 367.727 83.1442 368.737C82.8246 369.239 82.5517 369.77 82.3292 370.322Z" fill="#263238"/>
<path d="M117.497 384.569C118.206 385.93 119 387.244 119.874 388.503C121.395 390.894 123.446 394.213 125.565 397.97C127.684 401.726 129.491 405.196 130.754 407.737C131.38 409.148 132.097 410.517 132.9 411.835C132.485 410.353 131.925 408.916 131.23 407.545C130.075 404.95 128.35 401.426 126.204 397.642C124.057 393.858 121.938 390.566 120.308 388.244C119.49 386.931 118.549 385.701 117.497 384.569Z" fill="#263238"/>
<path d="M129.532 428.951C129.532 429.046 131.515 428.104 134.68 426.669C137.845 425.235 142.259 423.364 147.244 421.615C152.23 419.867 156.848 418.542 160.217 417.681C163.585 416.821 165.65 416.315 165.65 416.247C165.143 416.226 164.635 416.276 164.142 416.397C163.178 416.547 161.792 416.807 160.067 417.176C151.192 419.128 142.586 422.156 134.435 426.191C132.873 426.97 131.623 427.639 130.781 428.131C130.332 428.349 129.912 428.625 129.532 428.951V428.951Z" fill="#263238"/>
<path d="M120.064 482.006C120.064 482.006 120.268 482.115 120.689 482.224L122.509 482.689L129.301 484.26C136.726 485.822 144.066 487.769 151.292 490.093C158.486 492.511 165.374 495.766 171.817 499.791C174.275 501.362 176.191 502.755 177.481 503.753C178.131 504.297 178.811 504.803 179.519 505.269C179.519 505.269 179.369 505.078 179.057 504.777C178.744 504.477 178.283 504.039 177.698 503.52C175.926 502.027 174.072 500.636 172.143 499.354C165.737 495.168 158.826 491.822 151.578 489.396C144.325 487.051 136.935 485.163 129.45 483.741L122.658 482.375C121.802 482.197 120.936 482.074 120.064 482.006Z" fill="#263238"/>
<path d="M85.8065 495.092C86.0103 495.092 87.1649 487.975 88.5232 479.137C89.8815 470.299 90.6966 463.101 90.4928 463.073C90.289 463.046 89.1345 470.19 87.7761 479.028C86.4178 487.866 85.6707 495.065 85.8065 495.092Z" fill="#263238"/>
<path d="M50.1364 482.074C51.2928 480.868 52.3683 479.585 53.3557 478.236C55.2846 475.818 57.9469 472.499 60.976 468.879C64.0051 465.259 66.7897 462.049 68.8272 459.726C69.994 458.513 71.0829 457.227 72.0873 455.874C71.7051 456.122 71.3579 456.421 71.0549 456.762C70.4301 457.35 69.5608 458.251 68.4877 459.371C66.3551 461.612 63.489 464.835 60.4599 468.401C57.4308 471.966 54.8227 475.408 53.0026 477.963C52.0789 479.219 51.359 480.244 50.8835 480.954C50.5852 481.292 50.3339 481.669 50.1364 482.074V482.074Z" fill="#263238"/>
<path d="M144.528 515.336V533.053H140.113L124.451 582.776H89.7186L74.5459 533.545L68.6642 533.053V515.336H144.528Z" fill="#252525"/>
<g opacity="0.3">
<path opacity="0.3" d="M144.528 515.336V533.053H140.113L124.451 582.776H89.7186L74.5459 533.545L68.6642 533.053V515.336H144.528Z" fill="black"/>
</g>
<path d="M71.5983 533.545C71.5983 533.75 86.9475 533.914 105.856 533.914C124.764 533.914 140.113 533.75 140.113 533.545C140.113 533.34 124.777 533.176 105.856 533.176C86.9339 533.176 71.5983 533.34 71.5983 533.545Z" fill="#263238"/>
<path d="M46.6183 419.553C47.3426 419.816 48.0878 420.017 48.846 420.154L54.9449 421.643C60.0795 422.913 67.17 424.853 74.7903 427.448C82.4106 430.043 89.2431 432.775 94.106 434.879L99.8518 437.406C100.539 437.754 101.252 438.046 101.984 438.28C101.348 437.845 100.675 437.466 99.974 437.147C98.6157 436.464 96.7276 435.521 94.3097 434.415C88.018 431.533 81.5847 428.976 75.0348 426.751C68.48 424.534 61.8152 422.66 55.0672 421.137C52.4728 420.563 50.3673 420.14 48.9003 419.894C48.1513 419.712 47.3876 419.598 46.6183 419.553Z" fill="#263238"/>
<path d="M83.1306 561.152C83.1306 561.357 93.9023 561.521 107.173 561.521C120.444 561.521 131.202 561.357 131.202 561.152C131.202 560.947 120.444 560.783 107.173 560.783C93.9023 560.783 83.1306 560.947 83.1306 561.152Z" fill="#FAFAFA"/>
<path d="M81.7858 557.04C81.7858 557.245 93.1959 557.409 107.255 557.409C121.314 557.409 132.724 557.245 132.724 557.04C132.724 556.835 121.327 556.671 107.255 556.671C93.1823 556.671 81.7858 556.835 81.7858 557.04Z" fill="#FAFAFA"/>
<path d="M804.289 63.4916H440.266V290.193H746.708L765.684 334.082L782.501 290.193H804.289V63.4916Z" fill="#FAFAFA"/>
<path d="M804.234 63.4779C804.234 65.6772 804.329 150.902 804.506 290.234V290.507H782.501L782.759 290.329C777.502 304.085 771.824 318.906 765.956 334.219L765.698 334.915L765.399 334.232C759.45 320.49 753.025 305.615 746.382 290.343L746.668 290.534H469.566H439.913V290.179C439.913 209.38 439.913 132.707 439.913 63.4233V63.1091H440.239L804.275 63.4233L440.239 63.7511L440.565 63.4233C440.565 132.666 440.565 209.339 440.565 290.179L440.212 289.824H469.525H746.627H746.831L746.912 290.015L765.929 333.918H765.372L782.243 290.07L782.311 289.878H804.234L803.963 290.152C804.234 150.847 804.234 65.6772 804.234 63.4779Z" fill="#263238"/>
<path d="M804.099 85.6071C804.099 85.8803 722.761 86.1125 622.461 86.1125C522.161 86.1125 440.81 85.8803 440.81 85.6071C440.81 85.3339 522.134 85.17 622.461 85.17C722.788 85.17 804.099 85.3339 804.099 85.6071Z" fill="#263238"/>
<path d="M459.609 75.608C459.609 76.2029 459.433 76.7845 459.104 77.279C458.776 77.7735 458.308 78.1587 457.761 78.3857C457.214 78.6128 456.613 78.6715 456.033 78.5544C455.453 78.4373 454.92 78.1498 454.503 77.7281C454.085 77.3065 453.802 76.7697 453.688 76.1859C453.574 75.602 453.636 74.9973 453.864 74.4485C454.092 73.8996 454.477 73.4312 454.97 73.1026C455.464 72.774 456.043 72.6001 456.634 72.6028C457.425 72.6064 458.181 72.9246 458.739 73.4878C459.296 74.051 459.609 74.8133 459.609 75.608V75.608Z" fill="#263238"/>
<path d="M470.408 75.608C470.408 76.2029 470.232 76.7845 469.903 77.279C469.574 77.7735 469.107 78.1587 468.56 78.3857C468.013 78.6128 467.412 78.6715 466.831 78.5544C466.251 78.4373 465.719 78.1498 465.302 77.7281C464.884 77.3065 464.601 76.7697 464.487 76.1859C464.373 75.602 464.434 74.9973 464.663 74.4485C464.891 73.8996 465.276 73.4312 465.769 73.1026C466.262 72.774 466.841 72.6001 467.433 72.6028C468.223 72.6064 468.98 72.9246 469.537 73.4878C470.095 74.051 470.408 74.8133 470.408 75.608V75.608Z" fill="#263238"/>
<path d="M481.207 75.608C481.207 76.2023 481.031 76.7834 480.703 77.2776C480.375 77.7718 479.908 78.157 479.362 78.3844C478.816 78.6119 478.215 78.6714 477.635 78.5554C477.056 78.4395 476.523 78.1532 476.105 77.733C475.687 77.3127 475.403 76.7772 475.287 76.1943C475.172 75.6113 475.231 75.0071 475.457 74.4579C475.684 73.9088 476.067 73.4395 476.558 73.1092C477.049 72.779 477.627 72.6028 478.218 72.6028C479.011 72.6028 479.771 72.9194 480.331 73.483C480.892 74.0466 481.207 74.8109 481.207 75.608V75.608Z" fill="#263238"/>
<path d="M479.971 126.15L471.332 129.51L479.971 132.857V134.892L469.104 130.562V128.472L479.971 124.128V126.15Z" fill="#263238"/>
<path d="M488.963 117.476H491.082L483.04 140.534H480.949L488.963 117.476Z" fill="#263238"/>
<path d="M502.682 128.472V130.576L491.815 134.906V132.871L500.482 129.524L491.815 126.15V124.115L502.682 128.472Z" fill="#263238"/>
<path d="M505.48 136.545C505.477 136.325 505.517 136.107 505.599 135.903C505.681 135.699 505.803 135.514 505.957 135.358C506.112 135.203 506.296 135.08 506.499 134.998C506.702 134.915 506.919 134.875 507.137 134.879C507.354 134.877 507.568 134.919 507.768 135.002C507.968 135.086 508.148 135.209 508.299 135.365C508.45 135.521 508.569 135.705 508.647 135.908C508.725 136.111 508.761 136.328 508.754 136.545C508.761 136.764 508.725 136.982 508.647 137.186C508.569 137.39 508.451 137.577 508.301 137.735C508.15 137.893 507.97 138.019 507.77 138.105C507.57 138.192 507.355 138.237 507.137 138.239C506.918 138.239 506.7 138.195 506.497 138.11C506.294 138.024 506.11 137.899 505.956 137.741C505.802 137.584 505.68 137.397 505.599 137.191C505.517 136.986 505.477 136.766 505.48 136.545V136.545Z" fill="#263238"/>
<path d="M511.022 136.545C511.017 136.325 511.056 136.106 511.137 135.901C511.218 135.696 511.34 135.51 511.495 135.354C511.65 135.198 511.835 135.076 512.039 134.994C512.242 134.912 512.46 134.873 512.679 134.879C512.895 134.878 513.108 134.922 513.306 135.006C513.504 135.091 513.683 135.214 513.833 135.37C513.982 135.525 514.099 135.71 514.176 135.911C514.254 136.113 514.29 136.329 514.282 136.545C514.29 136.763 514.254 136.979 514.177 137.183C514.1 137.386 513.983 137.572 513.834 137.73C513.685 137.888 513.506 138.014 513.308 138.101C513.109 138.189 512.896 138.235 512.679 138.239C512.459 138.241 512.24 138.198 512.037 138.113C511.833 138.029 511.648 137.903 511.494 137.745C511.339 137.587 511.218 137.4 511.137 137.193C511.056 136.987 511.017 136.767 511.022 136.545V136.545Z" fill="#263238"/>
<path d="M516.551 136.545C516.545 136.325 516.584 136.106 516.666 135.901C516.747 135.696 516.869 135.51 517.024 135.354C517.179 135.198 517.364 135.076 517.567 134.994C517.771 134.912 517.989 134.873 518.208 134.879C518.423 134.878 518.636 134.922 518.834 135.006C519.032 135.091 519.211 135.214 519.361 135.37C519.511 135.525 519.627 135.71 519.705 135.911C519.782 136.113 519.818 136.329 519.811 136.545C519.818 136.763 519.782 136.979 519.705 137.183C519.628 137.386 519.512 137.572 519.362 137.73C519.213 137.888 519.034 138.014 518.836 138.101C518.638 138.189 518.424 138.235 518.208 138.239C517.987 138.241 517.769 138.198 517.565 138.113C517.362 138.029 517.177 137.903 517.022 137.745C516.868 137.587 516.746 137.4 516.665 137.193C516.584 136.987 516.545 136.767 516.551 136.545V136.545Z" fill="#263238"/>
<path d="M709.829 158.538C709.829 158.811 656.025 159.029 589.657 159.029C523.288 159.029 469.471 158.811 469.471 158.538C469.471 158.265 523.275 158.032 589.657 158.032C656.039 158.032 709.829 158.251 709.829 158.538Z" fill="#455A64"/>
<path d="M749.086 159.248C749.086 159.521 743.924 159.753 737.54 159.753C731.155 159.753 725.994 159.521 725.994 159.248C725.994 158.975 731.169 158.743 737.54 158.743C743.91 158.743 749.086 158.934 749.086 159.248Z" fill="#263238"/>
<path d="M782.84 159.248C782.84 159.521 777.19 159.753 770.235 159.753C763.28 159.753 757.616 159.521 757.616 159.248C757.616 158.975 763.267 158.743 770.235 158.743C777.203 158.743 782.84 158.934 782.84 159.248Z" fill="#263238"/>
<path d="M622.529 178.905C622.529 179.178 588.326 179.396 546.135 179.396C503.945 179.396 469.756 179.178 469.756 178.905C469.756 178.632 503.945 178.399 546.135 178.399C588.326 178.399 622.529 178.618 622.529 178.905Z" fill="#455A64"/>
<path d="M621.428 254.895C621.428 255.168 587.225 255.387 545.049 255.387C502.872 255.387 468.656 255.168 468.656 254.895C468.656 254.622 502.859 254.39 545.049 254.39C587.239 254.39 621.428 254.622 621.428 254.895Z" fill="#455A64"/>
<path d="M678.031 178.905C678.031 179.178 668.726 179.396 657.248 179.396C645.77 179.396 636.465 179.178 636.465 178.905C636.465 178.632 645.77 178.399 657.248 178.399C668.726 178.399 678.031 178.618 678.031 178.905Z" fill="#263238"/>
<path d="M677.596 254.895C677.596 255.168 668.291 255.387 656.813 255.387C645.335 255.387 636.031 255.168 636.031 254.895C636.031 254.622 645.335 254.39 656.813 254.39C668.291 254.39 677.596 254.622 677.596 254.895Z" fill="#263238"/>
<path d="M479.78 189.259C479.78 189.532 477.471 189.764 474.619 189.764C471.766 189.764 469.471 189.532 469.471 189.259C469.471 188.986 471.78 188.767 474.619 188.767C477.458 188.767 479.78 188.986 479.78 189.259Z" fill="#252525"/>
<path d="M515.301 189.478C515.301 189.751 510.289 189.969 504.108 189.969C497.928 189.969 492.916 189.751 492.916 189.478C492.916 189.204 497.928 188.972 504.108 188.972C510.289 188.972 515.301 189.204 515.301 189.478Z" fill="#263238"/>
<path d="M537.999 189.478C537.999 189.751 533.707 189.969 528.409 189.969C523.112 189.969 518.819 189.751 518.819 189.478C518.819 189.204 523.112 188.972 528.409 188.972C533.707 188.972 537.999 189.204 537.999 189.478Z" fill="#263238"/>
<path d="M566.823 189.478C566.823 189.751 562.449 189.969 557.057 189.969C551.664 189.969 547.276 189.751 547.276 189.478C547.276 189.204 551.65 188.972 557.057 188.972C562.463 188.972 566.823 189.204 566.823 189.478Z" fill="#263238"/>
<path d="M592.047 189.478C592.047 189.751 588.068 189.969 583.164 189.969C578.26 189.969 574.28 189.751 574.28 189.478C574.28 189.204 578.26 188.972 583.164 188.972C588.068 188.972 592.047 189.204 592.047 189.478Z" fill="#263238"/>
<path d="M675.545 189.478C675.545 189.751 658.049 189.969 636.465 189.969C614.881 189.969 597.372 189.751 597.372 189.478C597.372 189.204 614.868 188.972 636.465 188.972C658.063 188.972 675.545 189.204 675.545 189.478Z" fill="#263238"/>
<path d="M478.354 202.482C478.354 202.755 476.371 202.987 473.912 202.987C471.454 202.987 469.471 202.755 469.471 202.482C469.471 202.209 471.454 201.976 473.912 201.976C476.371 201.976 478.354 202.209 478.354 202.482Z" fill="#252525"/>
<path d="M478.707 216.06C478.707 216.333 476.643 216.565 474.089 216.565C471.535 216.565 469.471 216.333 469.471 216.06C469.471 215.787 471.535 215.554 474.089 215.554C476.643 215.554 478.707 215.787 478.707 216.06Z" fill="#252525"/>
<path d="M478.707 231.427C478.707 231.701 476.643 231.919 474.089 231.919C471.535 231.919 469.471 231.701 469.471 231.427C469.471 231.154 471.535 230.922 474.089 230.922C476.643 230.922 478.707 231.14 478.707 231.427Z" fill="#252525"/>
<path d="M562.911 230.703C562.911 230.99 547.48 231.209 528.45 231.209C509.419 231.209 493.989 230.99 493.989 230.703C493.989 230.416 509.419 230.212 528.45 230.212C547.48 230.212 562.911 230.43 562.911 230.703Z" fill="#263238"/>
<path d="M556.88 216.06C556.88 216.333 542.156 216.565 524.008 216.565C505.861 216.565 491.15 216.333 491.15 216.06C491.15 215.787 505.861 215.554 524.008 215.554C542.156 215.554 556.88 215.787 556.88 216.06Z" fill="#263238"/>
<path d="M715.697 201.772C715.697 202.045 665.575 202.263 603.784 202.263C541.993 202.263 491.856 202.045 491.856 201.772C491.856 201.498 541.952 201.266 603.784 201.266C665.615 201.266 715.697 201.485 715.697 201.772Z" fill="#263238"/>
<path d="M826.647 156.202V348.862L796.858 373.846H826.647H829.581H952.647V156.202H826.647Z" fill="#FAFAFA"/>
<path d="M826.647 156.202C826.647 156.202 827.394 156.202 828.847 156.202H835.367H860.456L952.647 156.065H952.919V156.338C952.919 214.489 952.919 290.438 953 373.983V374.338H930.805H796.858H795.962L796.655 373.751L826.457 348.767L826.335 349.012C826.402 291.408 826.457 243.216 826.498 209.407C826.498 192.537 826.565 179.26 826.579 170.19C826.579 165.682 826.579 162.226 826.579 159.863C826.579 158.715 826.579 157.827 826.579 157.226C826.579 156.625 826.579 156.352 826.579 156.352C826.579 156.352 826.579 156.666 826.579 157.267C826.579 157.868 826.579 158.77 826.579 159.999C826.579 162.362 826.579 165.846 826.579 170.381C826.579 179.465 826.579 192.77 826.661 209.653C826.661 243.421 826.742 291.613 826.81 349.067V349.204L826.701 349.299L796.926 374.311L796.709 373.723H930.655H952.497L952.144 374.078C952.144 290.534 952.144 214.585 952.226 156.434L952.497 156.694L860.47 156.557L835.476 156.202H828.902H826.647Z" fill="#263238"/>
<path d="M838.098 165.764C838.098 166.272 837.948 166.768 837.667 167.191C837.387 167.613 836.988 167.942 836.521 168.136C836.055 168.331 835.541 168.382 835.046 168.283C834.551 168.183 834.096 167.939 833.738 167.58C833.381 167.221 833.138 166.763 833.04 166.265C832.941 165.767 832.992 165.25 833.185 164.781C833.378 164.312 833.706 163.911 834.125 163.629C834.545 163.346 835.039 163.196 835.544 163.196C836.221 163.196 836.871 163.466 837.35 163.948C837.829 164.43 838.098 165.083 838.098 165.764V165.764Z" fill="#263238"/>
<path d="M847.334 165.764C847.334 166.272 847.185 166.768 846.904 167.191C846.623 167.613 846.225 167.942 845.758 168.136C845.291 168.331 844.778 168.382 844.283 168.283C843.787 168.183 843.332 167.939 842.975 167.58C842.618 167.221 842.375 166.763 842.276 166.265C842.178 165.767 842.228 165.25 842.421 164.781C842.615 164.312 842.942 163.911 843.362 163.629C843.782 163.346 844.276 163.196 844.781 163.196C845.458 163.196 846.108 163.466 846.587 163.948C847.065 164.43 847.334 165.083 847.334 165.764V165.764Z" fill="#263238"/>
<path d="M856.571 165.764C856.571 166.272 856.421 166.768 856.141 167.191C855.86 167.613 855.461 167.942 854.995 168.136C854.528 168.331 854.015 168.382 853.519 168.283C853.024 168.183 852.569 167.939 852.212 167.58C851.855 167.221 851.611 166.763 851.513 166.265C851.414 165.767 851.465 165.25 851.658 164.781C851.851 164.312 852.179 163.911 852.599 163.629C853.019 163.346 853.512 163.196 854.018 163.196C854.695 163.196 855.344 163.466 855.823 163.948C856.302 164.43 856.571 165.083 856.571 165.764V165.764Z" fill="#263238"/>
<path d="M918.009 225.144C918.009 225.376 902.035 225.554 882.339 225.554C862.643 225.554 846.669 225.376 846.669 225.144C846.669 224.912 862.629 224.734 882.339 224.734C902.048 224.734 918.009 224.912 918.009 225.144Z" fill="#252525"/>
<path d="M932.897 242.574C932.897 242.792 913.459 242.984 889.43 242.984C865.4 242.984 845.963 242.792 845.963 242.574C845.963 242.355 865.4 242.164 889.43 242.164C913.459 242.164 932.897 242.342 932.897 242.574Z" fill="#252525"/>
<path d="M936.428 307.595C936.428 307.828 915.7 308.005 890.136 308.005C864.572 308.005 843.844 307.828 843.844 307.595C843.844 307.363 864.572 307.186 890.136 307.186C915.7 307.186 936.428 307.377 936.428 307.595Z" fill="#252525"/>
<path d="M853.352 251.439C850.439 251.986 847.45 251.986 844.536 251.439C847.45 250.893 850.439 250.893 853.352 251.439V251.439Z" fill="#252525"/>
<path d="M883.765 251.617C883.765 251.849 879.473 252.027 874.257 252.027C869.041 252.027 864.749 251.849 864.749 251.617C871.121 251.07 877.529 251.07 883.901 251.617H883.765Z" fill="#252525"/>
<path d="M903.217 251.617C903.217 251.849 899.549 252.027 895.067 252.027C890.584 252.027 886.849 251.849 886.849 251.617C892.309 251.07 897.81 251.07 903.271 251.617H903.217Z" fill="#252525"/>
<path d="M852.143 262.75C849.637 263.296 847.043 263.296 844.536 262.75C847.043 262.203 849.637 262.203 852.143 262.75Z" fill="#252525"/>
<path d="M852.442 274.374C849.835 274.921 847.144 274.921 844.536 274.374C847.142 273.809 849.837 273.809 852.442 274.374Z" fill="#252525"/>
<path d="M852.442 287.515C849.835 288.062 847.144 288.062 844.536 287.515C847.144 286.969 849.835 286.969 852.442 287.515V287.515Z" fill="#252525"/>
<path d="M924.502 286.9C924.502 287.133 911.299 287.31 895.012 287.31C878.726 287.31 865.523 287.133 865.523 286.9C865.523 286.668 878.726 286.491 895.012 286.491C911.299 286.491 924.502 286.682 924.502 286.9Z" fill="#252525"/>
<path d="M919.327 274.374C919.327 274.593 906.735 274.784 891.209 274.784C875.683 274.784 863.091 274.593 863.091 274.374C863.091 274.156 875.67 273.951 891.209 273.951C906.748 273.951 919.327 274.142 919.327 274.374Z" fill="#252525"/>
<path d="M858.201 324.957C855.594 325.504 852.903 325.504 850.296 324.957C852.903 324.411 855.594 324.411 858.201 324.957V324.957Z" fill="#252525"/>
<path d="M858.201 338.112C855.594 338.658 852.903 338.658 850.296 338.112C852.901 337.547 855.596 337.547 858.201 338.112V338.112Z" fill="#252525"/>
<path d="M930.261 337.497C930.261 337.716 917.058 337.907 900.772 337.907C884.485 337.907 871.282 337.716 871.282 337.497C871.282 337.278 884.472 337.087 900.772 337.087C917.072 337.087 930.261 337.265 930.261 337.497Z" fill="#252525"/>
<path d="M925.127 324.957C925.127 325.189 912.535 325.367 897.009 325.367C881.483 325.367 868.878 325.189 868.878 324.957C868.878 324.725 881.47 324.547 897.009 324.547C912.549 324.547 925.127 324.725 925.127 324.957Z" fill="#252525"/>
<path d="M940.245 262.135C940.245 262.367 923.103 262.545 901.967 262.545C880.831 262.545 863.689 262.367 863.689 262.135C863.689 261.903 880.831 261.725 901.967 261.725C923.103 261.725 940.245 261.916 940.245 262.135Z" fill="#252525"/>
<path d="M951.465 175.845C951.465 176.063 923.796 176.255 889.674 176.255C855.553 176.255 827.883 176.063 827.883 175.845C827.883 175.626 855.539 175.435 889.674 175.435C923.809 175.435 951.465 175.613 951.465 175.845Z" fill="#263238"/>
<path d="M872.736 214.639C864.042 215.186 855.322 215.186 846.628 214.639C846.628 214.407 852.469 214.229 859.682 214.229C866.895 214.229 872.736 214.407 872.736 214.639Z" fill="#252525"/>
<path d="M857.957 190.857C857.957 191.089 855.24 191.267 851.803 191.267C848.367 191.267 845.65 191.089 845.65 190.857C849.734 190.311 853.873 190.311 857.957 190.857Z" fill="#252525"/>
<path d="M748.909 471.419L776.266 444.222L727.474 360.2C722.397 354.357 715.969 349.858 708.756 347.1L691.573 340.53L648.853 332.648L618.535 344.709C614.805 346.185 611.666 348.862 609.609 352.322C607.551 355.782 606.693 359.83 607.166 363.833L615.099 430.986L619.771 518.41L729.974 499.176L718.89 466.843L719.256 416.411L748.909 471.419Z" fill="#252525"/>
<path d="M719.895 464.671C720.153 464.671 720.221 447.2 720.044 425.658C719.868 404.117 719.528 386.646 719.27 386.646C719.012 386.646 718.944 404.117 719.121 425.658C719.297 447.2 719.637 464.671 719.895 464.671Z" fill="#263238"/>
<path d="M715.861 477.484L649.302 450.533C646.668 449.466 644.382 447.681 642.702 445.379C641.022 443.077 640.015 440.349 639.793 437.502L634.93 373.3C634.93 373.3 635.501 345.98 618.549 344.614L608.891 348.425C596.408 355.146 593.324 373.395 595.049 387.493C597.454 407.518 598.459 435.862 601.162 453.252C603.376 467.472 611.866 478.714 625.313 483.645L707.33 501.499L715.861 477.484Z" fill="#252525"/>
<path d="M635.868 383.094C635.969 383.576 636.037 384.064 636.071 384.556C636.18 385.607 636.33 387.014 636.506 388.79C636.846 392.547 637.321 397.847 637.864 404.363C638.408 410.878 639.087 418.787 639.834 427.462C640.011 429.634 640.201 431.86 640.391 434.141C640.524 436.435 640.81 438.716 641.247 440.971C641.707 443.268 642.86 445.367 644.548 446.982C646.377 448.589 648.456 449.886 650.701 450.82C669.052 458.811 686.018 465.409 698.243 470.04L712.831 475.504L716.798 476.965C717.267 477.113 717.722 477.305 718.156 477.539C717.695 477.439 717.241 477.306 716.798 477.143L712.723 475.777C709.232 474.616 704.206 472.867 698.025 470.641C685.678 466.147 668.726 459.713 650.307 451.64C647.976 450.659 645.82 449.302 643.923 447.624C642.105 445.89 640.867 443.633 640.377 441.163C639.936 438.854 639.655 436.517 639.535 434.169C639.345 431.892 639.168 429.665 639.005 427.489C638.326 418.801 637.729 410.974 637.212 404.363C636.696 397.751 636.37 392.547 636.085 388.777C635.976 387.001 635.895 385.58 635.827 384.528C635.809 384.05 635.823 383.571 635.868 383.094V383.094Z" fill="#263238"/>
<path d="M597.766 417.995C597.86 418.272 597.906 418.563 597.902 418.856C597.902 419.525 598.038 420.345 598.119 421.328C598.323 423.623 598.595 426.697 598.907 430.439C599.22 434.182 599.736 438.854 600.401 443.908C601.059 449.391 602.066 454.825 603.417 460.177C604.037 462.931 605.136 465.553 606.663 467.922C608.135 470.117 609.798 472.174 611.635 474.069C614.746 477.299 618.345 480.014 622.298 482.115C625.976 483.996 629.921 485.295 633.993 485.967C633.704 486 633.413 486 633.124 485.967C632.293 485.921 631.467 485.816 630.652 485.653C627.624 485.077 624.693 484.075 621.945 482.675C617.887 480.617 614.19 477.908 610.996 474.657C609.105 472.74 607.395 470.65 605.889 468.414C604.297 465.968 603.147 463.258 602.493 460.409C601.138 455.019 600.149 449.543 599.532 444.018C598.921 438.936 598.513 434.346 598.174 430.494C597.834 426.642 597.753 423.514 597.671 421.356C597.671 420.358 597.671 419.539 597.671 418.856C597.667 418.566 597.699 418.277 597.766 417.995V417.995Z" fill="#263238"/>
<path d="M626.196 462.923C626.363 461.662 626.774 460.446 627.405 459.344C628.772 456.602 630.67 454.163 632.989 452.171C635.308 450.179 638 448.675 640.907 447.747C642.086 447.293 643.34 447.075 644.602 447.105C644.602 447.255 643.243 447.528 641.124 448.348C638.376 449.419 635.824 450.943 633.572 452.855C631.332 454.797 629.435 457.107 627.962 459.685C626.821 461.625 626.291 462.964 626.196 462.923Z" fill="#263238"/>
<g opacity="0.3">
<path opacity="0.3" d="M696.721 469.835C689.604 465.737 682.635 462.677 675.192 459.276C667.748 455.874 660.454 451.503 655.591 444.905C646.395 432.448 647.441 414.471 638.041 402.177L639.875 426.97C640.445 434.551 639.291 441.996 644.14 447.187C648.215 451.517 656.202 454.85 661.798 456.749C673.141 460.505 685.352 466.092 696.681 469.862" fill="black"/>
</g>
<path opacity="0.3" d="M719.27 391.372L725.029 427.106L719.582 416.984L719.27 391.372Z" fill="black"/>
<path d="M633.857 369.297C633.353 369.407 632.837 369.448 632.322 369.42L628.111 369.53C624.566 369.625 619.676 369.803 614.284 370.185C608.891 370.568 604.028 371.1 600.496 371.551L596.326 372.043C595.82 372.132 595.305 372.168 594.791 372.152C595.269 371.954 595.772 371.825 596.286 371.77C597.264 371.565 598.676 371.319 600.361 371.046C603.879 370.499 608.755 369.898 614.161 369.502C619.568 369.106 624.485 369.011 628.044 369.052C629.823 369.052 631.263 369.12 632.254 369.174C632.792 369.157 633.329 369.198 633.857 369.297V369.297Z" fill="#455A64"/>
<path d="M635.8 403.529C635.8 403.721 627.079 404.609 616.308 405.496C605.536 406.384 596.761 406.972 596.747 406.767C596.734 406.562 605.454 405.688 616.24 404.786C627.025 403.885 635.8 403.324 635.8 403.529Z" fill="#455A64"/>
<path d="M638.965 439.469C638.542 439.781 638.086 440.047 637.606 440.261C636.696 440.739 635.365 441.367 633.667 442.078C624.853 445.784 615.46 447.902 605.916 448.334C604.082 448.416 602.602 448.416 601.583 448.334C601.055 448.364 600.525 448.322 600.007 448.211C600.526 448.107 601.054 448.057 601.583 448.061C602.602 448.061 604.069 447.938 605.889 447.788C610.594 447.455 615.269 446.788 619.88 445.793C624.499 444.756 629.039 443.386 633.463 441.695C635.161 441.04 636.533 440.493 637.538 440.097C637.988 439.833 638.467 439.623 638.965 439.469V439.469Z" fill="#455A64"/>
<path d="M662.641 457.91C660.234 459.41 658.017 461.199 656.039 463.237C654.237 465.433 652.692 467.83 651.434 470.381C651.524 469.527 651.773 468.697 652.168 467.936C653.852 464.122 656.709 460.952 660.318 458.893C661.018 458.411 661.808 458.077 662.641 457.91V457.91Z" fill="#455A64"/>
<path d="M686.724 481.569C687.781 476.611 690.255 472.073 693.842 468.51C694.005 468.646 691.913 471.242 689.957 474.862C688.001 478.482 686.928 481.637 686.724 481.569Z" fill="#455A64"/>
<path d="M648.772 349.217C645.688 350.135 642.542 350.829 639.359 351.294C636.226 351.98 633.048 352.437 629.85 352.66C632.932 351.732 636.079 351.038 639.263 350.583C642.396 349.897 645.574 349.44 648.772 349.217V349.217Z" fill="#455A64"/>
<path d="M712.519 352.14C708.145 351.975 703.783 351.573 699.452 350.938C695.096 350.541 690.765 349.902 686.479 349.026C690.853 349.2 695.214 349.601 699.547 350.228C703.901 350.634 708.232 351.272 712.519 352.14V352.14Z" fill="#455A64"/>
<path d="M717.952 381.947C717.678 381.988 717.398 381.988 717.124 381.947H714.733H705.945C698.528 381.947 688.286 381.947 676.971 382.288C665.656 382.63 655.428 383.053 648.011 383.449L639.236 383.914L636.859 384.009C636.58 384.051 636.296 384.051 636.017 384.009C636.289 383.943 636.566 383.902 636.846 383.886L639.223 383.64C641.287 383.449 644.276 383.217 647.984 382.957C655.387 382.438 665.643 381.892 676.958 381.591C688.273 381.291 698.528 381.318 705.958 381.455C709.666 381.523 712.668 381.605 714.733 381.701L717.124 381.81C717.404 381.829 717.681 381.875 717.952 381.947V381.947Z" fill="#455A64"/>
<path d="M718.74 419.716C718.74 419.908 701.286 421.219 679.729 422.653C658.172 424.088 640.676 425.071 640.663 424.88C640.649 424.689 658.117 423.364 679.674 421.943C701.231 420.522 718.727 419.512 718.74 419.716Z" fill="#455A64"/>
<path d="M716.879 452.978C716.413 453.238 715.921 453.448 715.412 453.607C714.448 453.976 713.049 454.454 711.337 454.973C707.846 456.12 702.97 457.555 697.523 458.88C692.076 460.205 687.091 461.147 683.464 461.707C681.644 462.008 680.177 462.213 679.158 462.322C678.629 462.411 678.092 462.447 677.555 462.431C678.06 462.246 678.584 462.118 679.117 462.049L683.369 461.215C686.969 460.519 691.926 459.494 697.36 458.183C702.793 456.872 707.67 455.519 711.188 454.495L715.358 453.279C715.851 453.116 716.362 453.015 716.879 452.978V452.978Z" fill="#455A64"/>
<path d="M744.82 392.683C740.661 394.134 736.425 395.356 732.133 396.344C727.901 397.566 723.607 398.56 719.27 399.322C723.431 397.876 727.666 396.654 731.957 395.661C736.187 394.433 740.482 393.439 744.82 392.683V392.683Z" fill="#455A64"/>
<path d="M731.495 367.153C729.689 367.841 727.804 368.3 725.885 368.519C724 368.98 722.066 369.21 720.126 369.202C721.94 368.524 723.827 368.066 725.749 367.836C727.63 367.374 729.559 367.145 731.495 367.153V367.153Z" fill="#455A64"/>
<path d="M636.071 375.076C635.936 375.076 635.718 372.808 634.482 369.379C632.878 364.898 630.195 360.885 626.673 357.701C623.151 354.516 618.899 352.258 614.297 351.13C610.766 350.255 608.47 350.296 608.484 350.16C609.012 350.064 609.551 350.041 610.086 350.092C611.54 350.151 612.985 350.338 614.406 350.652C619.148 351.662 623.542 353.91 627.147 357.168C630.752 360.426 633.441 364.581 634.944 369.215C635.411 370.601 635.747 372.028 635.949 373.477C636.062 374.002 636.104 374.54 636.071 375.076V375.076Z" fill="#263238"/>
<path d="M715.399 356.867C716.421 360.979 717.206 365.148 717.749 369.352C718.537 373.52 719.086 377.729 719.392 381.96C718.385 377.84 717.606 373.668 717.056 369.461C716.269 365.298 715.716 361.093 715.399 356.867Z" fill="#263238"/>
<path d="M789.619 558.201C789.619 558.201 840.801 572.435 842.852 573.227C845.935 574.32 845.419 585.671 840.624 585.521C838.356 585.439 801.314 586.887 796.628 586.614C791.941 586.341 777.828 580.726 777.828 580.726L789.619 558.201Z" fill="#252525"/>
<path d="M810.944 577.831C811.203 577.831 811.542 575.099 813.199 572.367C814.856 569.635 816.976 567.831 816.813 567.627C816.65 567.422 814.177 568.883 812.452 571.929C810.727 574.976 810.727 577.858 810.944 577.831Z" fill="#263238"/>
<path d="M805.593 575.399C805.837 575.399 806.353 573.009 807.725 570.318C809.097 567.627 810.7 565.755 810.442 565.578C808.857 566.648 807.62 568.164 806.883 569.935C805.593 572.831 805.389 575.386 805.593 575.399Z" fill="#263238"/>
<path d="M800.594 574.061C800.852 574.061 800.594 571.465 801.789 568.597C802.985 565.728 804.764 563.979 804.588 563.788C804.411 563.597 802.183 565.154 801.002 568.296C799.82 571.438 800.39 574.197 800.594 574.061Z" fill="#263238"/>
<path d="M801.518 567.367C801.973 566.142 802.163 564.833 802.075 563.529C802.058 562.115 801.88 560.708 801.545 559.335C801.354 558.519 801.099 557.72 800.784 556.944C800.629 556.46 800.347 556.026 799.969 555.688C799.715 555.491 799.399 555.391 799.078 555.406C798.757 555.421 798.452 555.55 798.217 555.77C797.816 556.155 797.57 556.675 797.524 557.231C797.497 557.686 797.497 558.142 797.524 558.597C797.528 559.449 797.632 560.298 797.837 561.124C798.181 562.502 798.712 563.825 799.412 565.058C799.983 566.225 800.761 567.276 801.708 568.159C801.83 568.077 800.974 566.875 799.942 564.772C799.343 563.554 798.887 562.27 798.584 560.947C798.424 560.174 798.342 559.387 798.339 558.597C798.339 557.805 798.339 556.822 798.815 556.439C798.906 556.351 799.027 556.301 799.154 556.301C799.281 556.301 799.403 556.351 799.494 556.439C799.755 556.685 799.947 556.996 800.051 557.341C800.359 558.078 800.618 558.836 800.825 559.608C801.184 560.921 801.411 562.266 801.504 563.624C801.599 566.001 801.368 567.367 801.518 567.367Z" fill="#263238"/>
<path d="M801.518 566.889C800.472 566.445 799.336 566.258 798.203 566.342C796.981 566.343 795.763 566.494 794.577 566.793C793.846 566.952 793.142 567.214 792.485 567.572C792.065 567.785 791.726 568.13 791.518 568.553C791.31 568.977 791.244 569.457 791.33 569.921C791.445 570.366 791.677 570.771 792.002 571.093C792.328 571.415 792.734 571.643 793.177 571.752C793.931 571.943 794.72 571.943 795.473 571.752C796.684 571.437 797.817 570.875 798.801 570.099C799.727 569.46 800.532 568.66 801.178 567.736C800.228 568.287 799.32 568.908 798.461 569.594C797.512 570.247 796.447 570.71 795.324 570.96C794.699 571.117 794.046 571.117 793.422 570.96C793.126 570.884 792.856 570.732 792.637 570.519C792.417 570.305 792.257 570.038 792.172 569.744C792.126 569.452 792.176 569.154 792.313 568.893C792.45 568.631 792.668 568.422 792.933 568.296C793.521 567.979 794.146 567.736 794.794 567.572C795.921 567.255 797.077 567.054 798.244 566.971C800.159 566.821 801.423 567.025 801.518 566.889Z" fill="#263238"/>
<path d="M818.809 578.391C819.054 578.391 818.809 576.164 819.815 573.746C820.82 571.328 822.531 569.908 822.314 569.717C822.097 569.525 820.1 570.727 819.027 573.418C817.954 576.109 818.592 578.473 818.809 578.391Z" fill="#263238"/>
<path d="M729.05 546.249C729.05 546.249 680.625 578.131 678.873 579.456C676.265 581.437 679.253 590.876 683.776 589.237C685.909 588.472 726.551 577.093 730.925 575.385C735.298 573.678 747.062 564.034 747.062 564.034L729.05 546.249Z" fill="#252525"/>
<path d="M714.665 571.465C714.869 571.465 714.013 568.61 711.419 566.261C708.824 563.911 705.985 563.269 705.985 563.529C705.985 563.788 708.458 564.703 710.862 566.93C713.266 569.156 714.434 571.588 714.665 571.465Z" fill="#263238"/>
<path d="M719.012 567.517C719.216 567.449 718.278 564.99 716.064 562.736C713.85 560.482 711.446 559.458 711.364 559.663C711.283 559.868 713.361 561.165 715.439 563.337C717.518 565.509 718.781 567.64 719.012 567.517Z" fill="#263238"/>
<path d="M723.372 564.703C723.589 564.703 723.372 561.971 721.253 559.349C719.134 556.726 716.526 555.947 716.485 556.166C716.445 556.384 718.686 557.532 720.56 559.895C722.435 562.258 723.128 564.772 723.372 564.703Z" fill="#263238"/>
<path d="M720.506 558.652C720.628 558.652 719.963 557.286 719.406 555.005C719.088 553.683 718.897 552.333 718.835 550.975C718.789 550.174 718.789 549.372 718.835 548.571C718.836 548.213 718.925 547.861 719.093 547.546C719.165 547.442 719.274 547.368 719.397 547.34C719.52 547.312 719.65 547.332 719.759 547.396C720.316 547.615 720.601 548.557 720.859 549.308C721.099 550.059 721.259 550.833 721.335 551.617C721.46 552.983 721.419 554.359 721.212 555.715C720.873 558.024 720.425 559.431 720.56 559.472C721.2 558.345 721.624 557.108 721.81 555.824C722.106 554.434 722.211 553.009 722.123 551.59C722.064 550.741 721.909 549.903 721.661 549.09C721.53 548.657 721.371 548.232 721.185 547.82C720.977 547.308 720.591 546.89 720.099 546.645C719.808 546.506 719.478 546.475 719.167 546.557C718.857 546.64 718.585 546.83 718.401 547.096C718.143 547.535 718.003 548.034 717.993 548.544C717.939 549.38 717.939 550.22 717.993 551.057C718.089 552.449 718.348 553.825 718.767 555.155C719.083 556.435 719.677 557.63 720.506 558.652V558.652Z" fill="#263238"/>
<path d="M720.397 558.133C720.465 558.256 721.593 557.682 723.549 557.204C724.684 556.929 725.845 556.769 727.012 556.726C727.681 556.684 728.351 556.726 729.009 556.849C729.297 556.889 729.564 557.021 729.772 557.225C729.98 557.429 730.117 557.694 730.164 557.983C730.174 558.291 730.105 558.597 729.962 558.87C729.819 559.143 729.607 559.374 729.349 559.54C728.802 559.881 728.183 560.087 727.542 560.141C726.399 560.246 725.246 560.131 724.146 559.799C723.114 559.414 722.056 559.099 720.981 558.857C721.873 559.548 722.887 560.063 723.97 560.373C725.134 560.82 726.38 561.011 727.624 560.933C728.402 560.883 729.157 560.644 729.824 560.237C730.211 559.992 730.526 559.647 730.736 559.239C730.946 558.831 731.044 558.373 731.02 557.914C730.963 557.445 730.756 557.008 730.43 556.667C730.104 556.327 729.677 556.103 729.213 556.029C728.478 555.898 727.729 555.866 726.985 555.934C725.762 556.012 724.553 556.241 723.386 556.617C722.288 556.887 721.266 557.405 720.397 558.133V558.133Z" fill="#263238"/>
<path d="M707.33 574.402C707.561 574.402 707.493 571.943 705.632 569.73C703.771 567.517 701.381 566.998 701.367 567.217C701.353 567.435 703.323 568.255 704.967 570.29C706.61 572.326 707.086 574.443 707.33 574.402Z" fill="#263238"/>
<path d="M742.076 565.755C741.326 566.186 740.612 566.679 739.944 567.23C738.027 568.568 736.036 569.794 733.981 570.905C730.907 572.528 727.731 573.948 724.472 575.153C720.805 576.519 716.689 577.817 712.342 579.087C703.622 581.614 695.73 583.923 690.038 585.644L683.247 587.72C682.411 587.935 681.597 588.228 680.815 588.595C681.671 588.476 682.516 588.289 683.342 588.035L690.133 586.231C695.866 584.661 703.717 582.448 712.492 579.921C716.852 578.65 720.981 577.325 724.717 575.891C727.99 574.642 731.168 573.154 734.225 571.438C736.282 570.274 738.249 568.954 740.107 567.49C740.822 566.983 741.482 566.401 742.076 565.755V565.755Z" fill="#263238"/>
<path d="M743.87 566.411C742.578 565.829 741.202 565.46 739.795 565.318C736.357 564.665 732.803 565.099 729.621 566.561C727.89 567.451 726.395 568.744 725.26 570.331C724.351 571.605 723.59 572.98 722.992 574.429C722.356 575.727 721.899 577.106 721.633 578.527C722.35 577.312 722.981 576.048 723.522 574.743C724.676 572.476 726.496 569.157 729.987 567.408C733.04 566.051 736.408 565.578 739.713 566.042C742.267 566.192 743.842 566.547 743.87 566.411Z" fill="#263238"/>
<path d="M829.73 466.502C829.73 466.502 844.251 471.747 844.319 488.139C844.428 519.557 781.265 554.117 781.265 554.117L697.197 498.111L691.927 495.966C691.927 495.966 805.403 453.047 829.73 466.502Z" fill="#263238"/>
<path d="M739.781 526.387C740.556 525.963 741.288 525.464 741.968 524.898C743.326 523.901 745.309 522.398 747.727 520.527C752.536 516.798 759.083 511.484 766.133 505.405C773.183 499.327 779.377 493.617 783.791 489.396C785.992 487.292 787.758 485.557 788.953 484.342C789.61 483.748 790.21 483.094 790.746 482.388C790.027 482.902 789.35 483.473 788.722 484.096L783.384 488.945C778.874 493.043 772.612 498.685 765.576 504.75C758.54 510.815 752.074 516.197 747.361 520.063L741.751 524.598C741.046 525.139 740.388 525.737 739.781 526.387V526.387Z" fill="#455A64"/>
<path d="M806 478.222C803.264 477.79 800.463 478.048 797.85 478.973C793.463 480.257 790.515 482.607 790.651 482.771C790.787 482.935 793.857 481.036 798.095 479.793C802.333 478.55 806 478.495 806 478.222Z" fill="#455A64"/>
<path d="M798.801 473.277C796.797 473.989 795.061 475.305 793.829 477.047C791.588 479.779 790.99 482.716 791.208 482.744C791.425 482.771 792.376 480.203 794.495 477.594C796.614 474.985 798.882 473.509 798.801 473.277Z" fill="#455A64"/>
<path d="M834.349 572.653C834.349 572.558 833.344 572.353 832.175 573.309C830.814 574.602 829.956 576.341 829.758 578.213C829.466 580.07 829.731 581.972 830.518 583.677C831.116 584.961 831.768 585.576 831.877 585.507C831.985 585.439 831.537 584.715 831.116 583.458C830.571 581.829 830.409 580.094 830.641 578.391C830.83 576.7 831.521 575.105 832.624 573.815C833.48 572.831 834.362 572.831 834.349 572.653Z" fill="#263238"/>
<path d="M823.713 421.929L799.806 486.773C799.139 488.581 797.933 490.136 796.352 491.227C794.771 492.318 792.894 492.89 790.977 492.865L659.326 491.117V481.063L708.227 482.853L728.955 418.186C729.299 417.122 729.969 416.195 730.87 415.537C731.77 414.88 732.854 414.525 733.967 414.526L818.891 414.771C819.733 414.787 820.56 415.005 821.301 415.409C822.042 415.813 822.676 416.39 823.149 417.092C823.622 417.794 823.92 418.599 824.018 419.441C824.116 420.283 824.011 421.137 823.713 421.929Z" fill="#E0E0E0"/>
<path d="M823.713 421.929C823.713 421.929 823.713 421.929 823.713 421.724C823.785 421.529 823.839 421.328 823.876 421.123C824.072 420.32 824.072 419.481 823.876 418.678C823.602 417.615 822.999 416.666 822.154 415.969C821.31 415.272 820.267 414.862 819.176 414.799C818.28 414.799 817.288 414.799 816.256 414.799H780.83H756.013H742.063H734.742C733.521 414.677 732.293 414.95 731.237 415.577C730.186 416.242 729.41 417.265 729.05 418.46L708.376 483.017V483.167H708.213L659.313 481.391L659.53 481.173V491.226L659.326 491.021L742.104 492.128L778.086 492.633L786.386 492.743H790.461C791.758 492.82 793.057 492.63 794.278 492.183C795.464 491.748 796.546 491.069 797.456 490.19C798.366 489.31 799.083 488.249 799.562 487.074C800.431 484.724 801.287 482.416 802.129 480.176C808.798 462.185 814.191 447.651 817.913 437.597C819.787 432.598 821.227 428.705 822.219 426.055C823.21 423.405 823.74 422.052 823.74 422.052C823.74 422.052 823.265 423.418 822.3 426.15L818.035 437.597C814.34 447.665 809.002 462.185 802.373 480.216L799.82 487.142C799.327 488.353 798.59 489.449 797.655 490.359C796.72 491.269 795.607 491.974 794.386 492.429C793.122 492.894 791.778 493.099 790.434 493.03H786.359L778.073 492.92L742.09 492.469L659.299 491.39H659.095V480.899H659.313L708.213 482.703L708.009 482.853L728.738 418.309C729.118 417.033 729.949 415.94 731.074 415.236C732.189 414.578 733.482 414.291 734.769 414.416H742.09H756.04L780.857 414.526L816.283 414.69C817.315 414.69 818.293 414.69 819.217 414.69C820.331 414.763 821.392 415.19 822.249 415.91C823.106 416.629 823.714 417.603 823.985 418.692C824.185 419.499 824.185 420.344 823.985 421.151C823.916 421.418 823.826 421.678 823.713 421.929V421.929Z" fill="#263238"/>
<path d="M765.345 446.422C766.363 445.903 767.509 445.692 768.644 445.813C769.779 445.934 770.855 446.383 771.743 447.105C772.493 447.823 773.012 448.75 773.235 449.768C773.457 450.785 773.373 451.846 772.992 452.815C772.58 453.769 771.912 454.59 771.063 455.185C770.214 455.781 769.217 456.128 768.184 456.189C767.087 456.26 765.997 455.969 765.08 455.36C764.163 454.751 763.469 453.857 763.104 452.815C762.492 450.697 763.104 447.542 765.345 446.422Z" fill="white"/>
<path d="M795.432 557.6C795.432 557.6 676.795 481.186 671.565 478.181C667.11 475.627 655.183 468.25 643.434 471.515C631.684 474.78 621.143 485.407 615.873 500.857C612.871 509.708 611.445 524.803 610.779 536.127C609.881 549.687 614.266 563.066 623.004 573.432C626.871 578.267 631.997 581.927 637.81 584.005C639.046 584.387 640.337 584.715 641.654 585.002C664.108 589.906 687.186 579.77 699.805 560.414L702.522 556.18C702.522 556.18 780.219 584.865 781.428 584.469L795.432 557.6Z" fill="#263238"/>
<path d="M677.691 482.416C677.691 482.416 677.582 482.416 677.392 482.238L676.564 481.664C675.83 481.159 674.757 480.421 673.358 479.506C669.407 476.897 665.179 474.739 660.753 473.072C657.696 471.943 654.494 471.267 651.244 471.064C647.538 470.909 643.84 471.518 640.377 472.854C636.534 474.346 632.984 476.511 629.891 479.247C628.235 480.672 626.678 482.21 625.232 483.85C623.769 485.538 622.477 487.369 621.374 489.314C619.191 493.193 617.477 497.32 616.267 501.608C615.139 505.774 614.243 509.886 613.401 513.765C611.833 520.638 610.924 527.646 610.684 534.692C610.599 539.447 610.958 544.198 611.757 548.885C612.015 550.552 612.314 551.822 612.491 552.696L612.681 553.693C612.699 553.807 612.699 553.922 612.681 554.035C612.634 553.93 612.598 553.82 612.572 553.707C612.572 553.448 612.409 553.12 612.314 552.724C612.083 551.863 611.743 550.606 611.445 548.94C610.515 544.249 610.06 539.475 610.086 534.692C610.268 527.615 611.146 520.573 612.708 513.67C613.55 509.763 614.419 505.679 615.533 501.458C616.766 497.115 618.504 492.934 620.709 489C621.835 487.003 623.154 485.122 624.648 483.386C626.118 481.72 627.702 480.159 629.388 478.714C632.549 475.938 636.173 473.746 640.092 472.239C643.657 470.88 647.463 470.275 651.271 470.463C654.562 470.707 657.801 471.425 660.888 472.594C665.336 474.307 669.563 476.549 673.48 479.274C674.839 480.23 675.912 481.009 676.618 481.555L677.406 482.184C677.512 482.246 677.608 482.324 677.691 482.416V482.416Z" fill="#455A64"/>
<path d="M648.5 536.031C648.712 536.144 648.929 536.244 649.152 536.332L651.095 537.097L658.62 540.047L686.602 550.647C698.487 555.1 712.736 560.414 728.71 566.261C744.684 572.107 762.384 578.555 781.292 584.947L781.645 585.057L781.808 584.743C784.769 579.033 787.907 573.022 791.085 566.916L795.812 557.805L796.003 557.45L795.663 557.245L705.075 499.409L677.908 482.142L670.519 477.498L668.59 476.323C668.375 476.184 668.153 476.056 667.925 475.941C667.925 475.941 668.128 476.105 668.549 476.392L670.437 477.648L677.745 482.416L704.817 499.9L795.256 557.969L795.106 557.409C793.612 560.291 792.009 563.378 790.379 566.493L781.115 584.319L781.618 584.101C762.723 577.68 745.01 571.301 729.023 565.509L686.914 550.087L658.837 539.733L651.258 537.001L649.288 536.304L648.5 536.031Z" fill="#455A64"/>
<path d="M654.64 282.516C652.415 278.498 650.647 274.241 649.37 269.825C648.094 265.374 648.343 260.621 650.076 256.329C651.176 253.884 652.915 251.74 653.784 249.199C654.966 245.702 654.477 241.577 656.637 238.585C659.992 233.9 667.191 234.993 672.393 232.547C676.469 230.635 679.28 226.523 683.532 225.144C687.254 223.942 691.315 225.144 694.901 226.646C698.487 228.149 702.005 230.157 705.877 230.662C708.659 230.819 711.448 230.819 714.23 230.662C717.051 230.544 719.809 231.523 721.932 233.394C723.888 235.375 724.296 239.05 722.177 240.866C727.053 240.033 731.685 244.964 731.577 249.896C731.468 254.827 727.787 259.239 723.291 261.315C718.794 263.392 713.674 263.515 708.743 263.118C694.793 262.026 680.774 256.698 671.28 246.371" fill="#252525"/>
<path d="M657.642 264.962L648.133 334.423C647.749 337.222 647.934 340.071 648.678 342.795C649.423 345.52 650.71 348.064 652.462 350.273C654.213 352.482 656.394 354.31 658.87 355.645C661.346 356.981 664.066 357.796 666.865 358.042V358.042C672.172 358.505 677.453 356.898 681.615 353.555C685.777 350.211 688.501 345.386 689.223 340.079C689.93 334.847 690.582 330.517 690.582 329.957C690.582 329.957 708.39 330.722 712.057 313.401C713.823 305.027 716.132 287.447 717.925 271.588C718.879 263.37 716.727 255.092 711.896 248.394C707.066 241.697 699.909 237.07 691.845 235.43L690.174 235.102C672 232.52 659.679 246.617 657.642 264.962Z" fill="#FFBE9D"/>
<path d="M690.745 329.683C682.743 328.237 675.349 324.433 669.5 318.755C669.5 318.755 672.339 332.333 689.875 334.232L690.745 329.683Z" fill="#EB996E"/>
<path d="M710.264 286.354C710.142 287.002 709.772 287.577 709.234 287.955C708.696 288.333 708.032 288.484 707.384 288.376C707.068 288.337 706.762 288.235 706.484 288.076C706.207 287.918 705.964 287.705 705.769 287.451C705.574 287.196 705.432 286.906 705.35 286.595C705.268 286.285 705.249 285.962 705.293 285.644C705.412 284.996 705.779 284.42 706.314 284.04C706.849 283.659 707.511 283.505 708.159 283.608C708.478 283.645 708.787 283.746 709.067 283.905C709.347 284.064 709.592 284.278 709.788 284.534C709.984 284.79 710.128 285.083 710.21 285.395C710.291 285.708 710.31 286.034 710.264 286.354V286.354Z" fill="#263238"/>
<path d="M712.6 279.36C712.234 279.62 710.644 277.858 707.982 277.338C705.32 276.819 703.119 277.748 702.902 277.338C702.793 277.161 703.214 276.642 704.26 276.191C705.543 275.631 706.966 275.484 708.335 275.768C709.719 276.038 710.98 276.746 711.935 277.789C712.628 278.609 712.791 279.251 712.6 279.36Z" fill="#263238"/>
<path d="M685.515 282.051C685.393 282.7 685.023 283.274 684.485 283.652C683.947 284.03 683.283 284.181 682.635 284.073C682.318 284.036 682.011 283.935 681.733 283.777C681.454 283.619 681.211 283.406 681.016 283.151C680.821 282.897 680.678 282.605 680.597 282.294C680.516 281.983 680.498 281.659 680.544 281.341C680.663 280.694 681.03 280.119 681.566 279.741C682.102 279.363 682.764 279.212 683.41 279.319C683.728 279.356 684.035 279.457 684.314 279.615C684.593 279.773 684.838 279.985 685.034 280.24C685.23 280.494 685.374 280.786 685.456 281.097C685.539 281.408 685.559 281.732 685.515 282.051Z" fill="#263238"/>
<path d="M686.425 274.62C686.045 274.88 684.456 273.118 681.793 272.585C679.131 272.052 676.93 273.008 676.713 272.585C676.604 272.407 677.026 271.888 678.071 271.437C679.354 270.878 680.777 270.73 682.147 271.014C683.527 271.286 684.786 271.988 685.746 273.022C686.439 273.869 686.602 274.497 686.425 274.62Z" fill="#263238"/>
<path d="M692.117 296.353C693.604 296.187 695.106 296.215 696.586 296.435C697.278 296.503 697.944 296.435 698.148 296.053C698.364 295.364 698.364 294.624 698.148 293.935C697.849 292.16 697.523 290.302 697.183 288.348C695.825 280.398 695.064 273.923 695.377 273.869C695.689 273.814 697.02 280.221 698.338 288.171C698.637 290.124 698.936 291.982 699.221 293.771C699.475 294.676 699.413 295.64 699.044 296.503C698.893 296.729 698.691 296.917 698.455 297.052C698.22 297.187 697.957 297.266 697.686 297.282C697.29 297.307 696.893 297.279 696.504 297.2C695.012 297.106 693.538 296.821 692.117 296.353V296.353Z" fill="#263238"/>
<path d="M683.939 296.626C684.374 296.626 683.804 299.591 685.868 302.09C687.933 304.59 691.057 304.945 690.989 305.355C690.989 305.546 690.201 305.779 688.897 305.56C687.203 305.239 685.674 304.33 684.578 302.992C683.557 301.699 683.07 300.06 683.219 298.416C683.342 297.227 683.749 296.572 683.939 296.626Z" fill="#263238"/>
<path d="M689.183 264.293C688.775 264.963 686.194 264.088 683.002 263.842C679.81 263.597 677.134 263.938 676.849 263.214C676.727 262.859 677.297 262.271 678.452 261.766C679.98 261.185 681.619 260.959 683.246 261.103C684.874 261.247 686.448 261.759 687.851 262.599C688.897 263.282 689.359 263.979 689.183 264.293Z" fill="#252525"/>
<path d="M713.225 271.437C712.628 271.956 710.93 270.959 708.743 270.481C706.556 270.003 704.668 270.071 704.287 269.361C704.165 269.006 704.573 268.459 705.51 267.995C706.738 267.528 708.077 267.438 709.357 267.737C710.636 268.036 711.798 268.711 712.696 269.675C713.293 270.508 713.429 271.191 713.225 271.437Z" fill="#252525"/>
<path d="M656.501 278.103C656.229 277.912 645.335 272.189 643.352 284.141C641.369 296.094 653.716 295.629 653.784 295.288C653.852 294.946 656.501 278.103 656.501 278.103Z" fill="#FFBE9D"/>
<path d="M650.905 290.151C650.905 290.151 650.674 290.261 650.307 290.356C649.778 290.49 649.218 290.411 648.745 290.138C647.563 289.455 646.843 287.283 647.142 285.111C647.285 284.083 647.651 283.099 648.215 282.229C648.388 281.871 648.643 281.561 648.96 281.323C649.277 281.085 649.645 280.927 650.035 280.863C650.284 280.84 650.532 280.906 650.738 281.048C650.944 281.19 651.094 281.4 651.163 281.641C651.271 282.01 651.163 282.229 651.163 282.256C651.163 282.283 651.448 282.106 651.434 281.6C651.418 281.292 651.298 280.998 651.095 280.767C650.807 280.463 650.412 280.286 649.994 280.275C649.49 280.29 648.998 280.435 648.565 280.695C648.132 280.956 647.773 281.324 647.522 281.764C646.845 282.714 646.411 283.816 646.259 284.974C645.933 287.392 646.789 289.851 648.419 290.643C648.725 290.788 649.059 290.863 649.397 290.863C649.735 290.863 650.069 290.788 650.375 290.643C650.837 290.438 650.945 290.179 650.905 290.151Z" fill="#EB996E"/>
<path d="M721.375 255.455C719.338 259.867 708.851 261.575 701.163 259.239C694.086 257.094 691.505 252.573 687.009 248.625C684.157 246.125 684.157 246.125 679.498 245.647C675.735 245.251 672.706 249.021 669.867 251.521C671.456 261.083 667.259 270.427 663.157 279.128C662.812 280.145 662.137 281.015 661.241 281.6C659.639 282.393 657.71 281.136 656.745 279.606C655.392 277.032 654.812 274.118 655.075 271.219C655.113 264.608 656.456 258.07 659.027 251.986C661.605 245.857 665.923 240.63 671.443 236.96C678.514 232.612 686.99 231.201 695.078 233.025C703.118 234.897 710.367 239.271 715.793 245.524C718.442 248.292 720.362 251.683 721.375 255.387" fill="#252525"/>
<path d="M697.251 284.332C697.36 284.332 697.251 283.308 697.795 281.6C698.489 279.142 699.969 276.982 702.005 275.453C703.496 274.345 705.237 273.626 707.072 273.361C708.907 273.097 710.779 273.294 712.519 273.937C714.573 274.694 716.356 276.049 717.64 277.83C719.025 279.73 719.772 282.024 719.772 284.38C719.772 286.736 719.025 289.03 717.64 290.93C716.356 292.711 714.573 294.066 712.519 294.823C710.778 295.466 708.905 295.663 707.07 295.396C705.234 295.129 703.494 294.406 702.005 293.293C699.967 291.772 698.487 289.615 697.795 287.16C697.319 285.411 697.36 284.428 697.251 284.428C697.219 284.677 697.219 284.93 697.251 285.179C697.247 285.892 697.329 286.603 697.496 287.297C698.069 289.918 699.54 292.253 701.652 293.894C702.904 294.856 704.335 295.557 705.861 295.954C707.386 296.352 708.975 296.439 710.535 296.21C712.094 295.981 713.592 295.44 714.94 294.62C716.289 293.8 717.461 292.718 718.387 291.436C719.912 289.382 720.735 286.888 720.735 284.325C720.735 281.763 719.912 279.269 718.387 277.215C717.452 275.934 716.272 274.854 714.914 274.039C713.557 273.224 712.052 272.692 710.486 272.473C708.921 272.254 707.328 272.353 705.801 272.764C704.274 273.175 702.845 273.89 701.598 274.866C699.487 276.502 698.016 278.833 697.441 281.45C697.275 282.148 697.193 282.863 697.197 283.581C697.18 283.833 697.199 284.086 697.251 284.332Z" fill="#263238"/>
<path d="M669.065 279.387C669.174 279.387 669.066 278.363 669.609 276.655C670.3 274.196 671.781 272.035 673.82 270.508C675.309 269.398 677.05 268.677 678.886 268.413C680.721 268.148 682.593 268.347 684.333 268.992C686.386 269.744 688.169 271.095 689.454 272.872C690.84 274.774 691.588 277.07 691.588 279.428C691.588 281.786 690.84 284.083 689.454 285.985C688.174 287.767 686.389 289.119 684.333 289.865C682.593 290.51 680.721 290.709 678.886 290.444C677.05 290.179 675.309 289.459 673.82 288.348C671.781 286.822 670.3 284.661 669.609 282.201C669.133 280.467 669.174 279.469 669.065 279.469C669.034 279.714 669.034 279.962 669.065 280.207C669.061 280.925 669.143 281.64 669.31 282.338C669.883 284.959 671.355 287.295 673.467 288.936C674.715 289.911 676.146 290.624 677.673 291.034C679.201 291.445 680.795 291.543 682.361 291.324C683.927 291.105 685.433 290.573 686.791 289.759C688.15 288.946 689.332 287.867 690.269 286.586C691.791 284.529 692.612 282.033 692.612 279.469C692.612 276.905 691.791 274.41 690.269 272.353C689.335 271.071 688.154 269.991 686.797 269.176C685.44 268.361 683.934 267.829 682.368 267.61C680.803 267.391 679.21 267.49 677.683 267.901C676.156 268.312 674.727 269.027 673.48 270.003C671.371 271.647 669.9 273.981 669.324 276.601C669.157 277.299 669.075 278.014 669.079 278.732C669.048 278.949 669.044 279.169 669.065 279.387Z" fill="#263238"/>
<path d="M692.293 279.797C692.415 280.029 693.923 279.319 695.676 279.866C697.428 280.412 698.311 281.819 698.542 281.682C698.773 281.546 698.542 281.177 698.202 280.576C697.661 279.79 696.87 279.211 695.96 278.936C695.049 278.66 694.072 278.704 693.19 279.06C692.524 279.333 692.225 279.688 692.293 279.797Z" fill="#263238"/>
<path d="M653.105 276.328C653.105 276.601 656.895 276.751 661.568 276.696C666.24 276.642 670.016 276.355 670.016 276.082C670.016 275.809 666.227 275.658 661.554 275.727C656.881 275.795 653.105 276.054 653.105 276.328Z" fill="#263238"/>
<path d="M726.985 244.049C726.984 244.435 726.92 244.818 726.795 245.183C726.458 246.192 725.841 247.083 725.016 247.751C723.798 248.757 722.307 249.371 720.737 249.513C718.844 249.666 716.939 249.565 715.073 249.213C711.681 248.709 708.316 248.03 704.994 247.177C703.717 246.836 702.685 246.549 701.992 246.33L701.177 246.071L700.905 245.962C700.905 245.962 701.014 245.962 701.19 245.962L702.019 246.166L705.035 246.918C707.588 247.532 711.147 248.284 715.114 248.885C716.957 249.234 718.839 249.339 720.71 249.199C722.236 249.073 723.691 248.498 724.894 247.546C725.703 246.912 726.323 246.066 726.687 245.101C726.931 244.459 726.945 244.035 726.985 244.049Z" fill="white"/>
<path d="M729.621 246.754C729.453 247.893 729.109 249 728.602 250.032C727.424 252.568 725.517 254.691 723.127 256.125C720.737 257.559 717.974 258.24 715.195 258.078C714.055 258.04 712.927 257.823 711.853 257.436C712.156 257.472 712.456 257.531 712.75 257.613C713.562 257.765 714.383 257.857 715.209 257.887C717.938 257.987 720.638 257.289 722.981 255.878C725.324 254.467 727.211 252.403 728.412 249.937C728.791 249.198 729.1 248.425 729.335 247.628C729.411 247.33 729.506 247.038 729.621 246.754V246.754Z" fill="white"/>
</svg>
